<svg t="1600873365277" class="icon" viewBox="0 0 1024 1024" version="1.1" xmlns="http://www.w3.org/2000/svg" p-id="10524" width="64" height="64"><path d="M832 89.6a102.4 102.4 0 0 1 101.952 93.056L934.4 192v448a102.4 102.4 0 0 1-93.056 101.952L832 742.4l-89.6-0.064V832a102.4 102.4 0 0 1-93.056 101.952L640 934.4H192A102.4 102.4 0 0 1 89.6 832V384A102.4 102.4 0 0 1 192 281.6l89.6-0.064V192a102.4 102.4 0 0 1 93.056-101.952L384 89.6h448z m-192 268.8H335.616a38.272 38.272 0 0 1-31.232 0H192a25.6 25.6 0 0 0-25.6 25.6v448c0 14.08 11.52 25.6 25.6 25.6h448a25.6 25.6 0 0 0 25.6-25.6V384a25.6 25.6 0 0 0-25.6-25.6z m192-192H384a25.6 25.6 0 0 0-25.088 20.48L358.4 192v89.536L640 281.6a102.4 102.4 0 0 1 101.952 93.056L742.4 384v281.536l89.6 0.064a25.6 25.6 0 0 0 25.088-20.48L857.6 640V192a25.6 25.6 0 0 0-20.48-25.088L832 166.4z" p-id="10525"></path></svg>
