<svg t="1619960814342" viewBox="0 0 1024 1024" version="1.1" xmlns="http://www.w3.org/2000/svg" p-id="3842" width="16" height="16"><path d="M298.688 170.688c0-47.168 38.208-85.376 85.312-85.376h469.312c47.168 0 85.376 38.208 85.376 85.376V640c0 47.104-38.208 85.312-85.376 85.312h-42.624V298.688c0-42.688-42.688-85.376-85.376-85.376H298.688v-42.624z" p-id="3843"></path><path d="M213.312 298.688C166.208 298.688 128 336.896 128 384v426.688C128 857.792 166.208 896 213.312 896H640c47.104 0 85.312-38.208 85.312-85.312V384c0-47.104-38.208-85.312-85.312-85.312H213.312z" p-id="3844"></path></svg>