<svg t="1606536179078" viewBox="0 0 1024 1024" version="1.1" xmlns="http://www.w3.org/2000/svg" p-id="5142" width="30" height="30"><path d="M876.425846 400.817231l-268.169846 268.130461-185.107692 99.958154-56.241231 56.201846a35.446154 35.446154 0 0 1-42.929231 5.553231l-177.309538-103.424a35.446154 35.446154 0 0 1-7.207385-55.689846l93.105231-93.065846 99.997538-185.225846 268.169846-268.169847a35.446154 35.446154 0 0 1 50.097231 0l225.595077 225.595077a35.446154 35.446154 0 0 1 0 50.136616z" fill="#FFFFFF" p-id="5143"></path><path d="M876.425846 400.817231l-268.169846 268.130461-185.107692 99.958154-190.621539-190.424615 100.036923-185.225846 268.169846-268.169847a35.446154 35.446154 0 0 1 50.097231 0l225.595077 225.595077a35.446154 35.446154 0 0 1 0 50.136616z" fill="#FAD97F" p-id="5144"></path><path d="M876.425846 400.817231l-268.169846 268.130461-275.692308-275.692307 268.169846-268.169847a35.446154 35.446154 0 0 1 50.097231 0l225.595077 225.595077a35.446154 35.446154 0 0 1 0 50.136616z" fill="#FAD97F" p-id="5145"></path><path d="M888.950154 338.156308l-225.555692-225.595077a53.169231 53.169231 0 0 0-75.224616 0L320.039385 380.731077l-3.072 4.096-98.855385 183.020308-91.175385 91.175384a53.169231 53.169231 0 0 0 10.791385 83.534769L315.076923 845.981538l4.568615 2.363077a53.169231 53.169231 0 0 0 59.825231-10.712615l54.429539-54.390154 182.823384-98.697846 4.096-3.032615 268.209231-268.209231a53.169231 53.169231 0 0 0 0-75.145846z m-25.048616 25.048615l2.048 2.441846a17.723077 17.723077 0 0 1-2.048 22.606769l-266.24 266.24-182.980923 98.816-4.096 3.072-56.24123 56.201847a17.723077 17.723077 0 0 1-21.425231 2.756923L155.569231 711.995077a17.723077 17.723077 0 0 1-3.623385-27.844923l93.105231-93.105231 3.072-4.096 98.737231-182.941538 266.358154-266.358154a17.723077 17.723077 0 0 1 25.048615 0l225.595077 225.595077z" fill="#000000" p-id="5146"></path><path d="M888.950154 338.156308l-225.555692-225.595077a53.169231 53.169231 0 0 0-75.224616 0L320.039385 380.731077l-3.072 4.096-106.299077 196.844308 209.250461 209.092923 196.765539-106.220308 4.096-3.032615 268.20923-268.209231a53.169231 53.169231 0 0 0 0-75.145846z m-25.048616 25.048615l2.048 2.441846a17.723077 17.723077 0 0 1-2.048 22.606769L597.464615 654.572308l-171.204923 92.435692-171.874461-171.716923 92.553846-171.441231 266.24-266.24a17.723077 17.723077 0 0 1 25.088 0l225.595077 225.595077z" fill="#000000" p-id="5147"></path><path d="M888.950154 338.156308l-225.555692-225.595077a53.169231 53.169231 0 0 0-75.224616 0L307.475692 393.255385l300.780308 300.780307 280.694154-280.694154a53.169231 53.169231 0 0 0 0-75.224615z m-25.048616 25.048615l2.048 2.441846a17.723077 17.723077 0 0 1-2.048 22.606769l-255.645538 255.606154L357.612308 393.216l255.606154-255.606154a17.723077 17.723077 0 0 1 25.088 0l225.595076 225.595077z" fill="#000000" p-id="5148"></path></svg>
