<svg t="1625327747118" class="icon" viewBox="0 0 1024 1024" version="1.1" xmlns="http://www.w3.org/2000/svg" p-id="8954" width="32" height="32"><path d="M94.293333 929.92a30.037333 30.037333 0 0 0 30.72 7.210667l324.565334-108.202667s1.962667-0.810667 2.56-0.981333c5.205333-2.218667 9.216-6.186667 9.216-6.186667l420.608-420.821333c0.170667-0.426667 7.168-8.192 7.978666-9.173334 15.36-18.176 47.914667-62.72 48.725334-124.16 0.213333-39.722667-16-84.864-56.746667-125.397333-40.533333-40.917333-85.674667-57.088-125.397333-56.874667-79.488 0.981333-130.816 55.082667-133.418667 56.874667l-420.778667 420.821333a38.4 38.4 0 0 0-6.186666 9.173334l-1.024 2.602666-108.245334 324.608a29.44 29.44 0 0 0 7.381334 30.506667z m82.645334-110.933333s13.994667-3.029333 23.552 5.76c9.002667 8.192 9.002667 21.162667 9.002666 21.162666l-46.72 15.573334 14.165334-42.538667z m64.725333-194.090667l109.44 48.128 48.128 109.610667-129.834667 43.306666c-4.565333-13.184-12.373333-29.568-25.557333-42.922666a99.157333 99.157333 0 0 0-46.336-25.557334l44.16-132.565333z m208.085333 123.605333l-40.106666-91.434666 348.885333-349.141334 65.877333 65.877334-374.613333 374.698666zM665.472 184.746667c0.170667-0.597333 42.325333-40.533333 91.050667-39.338667 24.362667 0.213333 51.328 8.192 83.072 39.338667 31.146667 31.573333 38.954667 58.453333 39.338666 83.029333 0.426667 22.357333-7.978667 42.752-17.152 58.88l-82.090666-82.005333a29.952 29.952 0 0 0-42.325334 0l-370.090666 370.304-91.477334-40.362667 389.674667-389.845333z" p-id="8955"></path></svg>