<svg t="1598751268742" class="icon" viewBox="0 0 1024 1024" version="1.1" xmlns="http://www.w3.org/2000/svg" p-id="45735" width="18" height="18"><defs><style type="text/css"></style></defs><path d="M874.24 806.4c11.52 11.52 14.08 25.6 6.4 33.28l12.8 47.36-47.36-12.8c-7.68 7.68-23.04 3.84-33.28-6.4L561.92 615.68c-11.52-11.52-14.08-25.6-6.4-33.28l33.28-33.28c7.68-7.68 23.04-3.84 33.28 6.4L874.24 806.4z" fill="#E64C45" p-id="45736"></path><path d="M894.72 899.84h-3.84l-40.96-11.52c-6.4 2.56-12.8 3.84-20.48 2.56-8.96-1.28-17.92-6.4-24.32-14.08L552.96 624.64c-7.68-7.68-11.52-15.36-14.08-24.32-2.56-10.24 0-20.48 7.68-26.88l33.28-33.28c6.4-6.4 16.64-8.96 26.88-7.68 8.96 1.28 17.92 6.4 24.32 14.08L883.2 797.44c14.08 14.08 17.92 32 11.52 44.8l11.52 40.96c1.28 3.84 0 8.96-3.84 12.8-1.28 2.56-5.12 3.84-7.68 3.84z m-47.36-38.4h3.84l24.32 7.68-7.68-24.32c-1.28-3.84 0-8.96 3.84-12.8 1.28-1.28 1.28-7.68-6.4-15.36L613.12 564.48c-3.84-3.84-7.68-6.4-11.52-6.4h-3.84l-33.28 33.28v3.84c1.28 3.84 3.84 7.68 6.4 11.52L823.04 857.6c3.84 3.84 7.68 6.4 11.52 6.4h3.84c2.56-1.28 5.12-2.56 8.96-2.56z" fill="#231C1C" p-id="45737"></path><path d="M431.36 162.56L371.2 102.4c-11.52-11.52-29.44-11.52-39.68 0L108.8 323.84c-11.52 11.52-11.52 29.44 0 39.68l60.16 60.16c11.52 11.52 29.44 11.52 39.68 0l12.8-12.8c1.28 5.12 3.84 8.96 7.68 12.8L410.88 665.6c3.84 3.84 7.68 6.4 12.8 7.68-3.84 37.12 5.12 70.4 28.16 93.44l322.56-322.56c-23.04-23.04-56.32-32-93.44-28.16-1.28-5.12-3.84-8.96-7.68-12.8L431.36 222.72c-3.84-3.84-7.68-6.4-12.8-7.68l12.8-12.8c11.52-10.24 11.52-28.16 0-39.68z"  p-id="45738"></path><path d="M451.84 779.52c-3.84 0-6.4-1.28-8.96-3.84-23.04-23.04-34.56-55.04-32-94.72-2.56-1.28-5.12-3.84-7.68-6.4l-1.28-1.28-181.76-240.64-1.28 1.28c-7.68 7.68-17.92 11.52-29.44 11.52-11.52 0-21.76-3.84-29.44-11.52l-60.16-60.16c-16.64-16.64-16.64-42.24 0-58.88L321.28 93.44c16.64-16.64 42.24-16.64 58.88 0l60.16 60.16c7.68 7.68 11.52 17.92 11.52 29.44 0 11.52-3.84 21.76-11.52 29.44l-1.28 1.28 240.64 180.48 1.28 1.28c2.56 2.56 3.84 5.12 6.4 7.68 38.4-1.28 71.68 8.96 94.72 32 2.56 2.56 3.84 5.12 3.84 8.96 0 3.84-1.28 6.4-3.84 8.96L460.8 775.68c-2.56 2.56-6.4 3.84-8.96 3.84z m-30.72-122.88c1.28 1.28 3.84 2.56 6.4 3.84 6.4 1.28 10.24 7.68 8.96 14.08-2.56 21.76 0 49.92 15.36 72.96L755.2 445.44c-23.04-16.64-52.48-17.92-72.96-15.36-6.4 1.28-11.52-3.84-14.08-8.96-1.28-2.56-1.28-5.12-3.84-6.4L423.68 232.96l-1.28-1.28c-1.28-1.28-3.84-2.56-6.4-3.84-3.84-1.28-7.68-5.12-8.96-8.96-1.28-3.84 0-8.96 3.84-12.8l12.8-12.8c2.56-2.56 5.12-6.4 5.12-11.52 0-3.84-1.28-7.68-5.12-11.52l-60.16-60.16c-6.4-6.4-16.64-6.4-21.76 0L117.76 332.8c-6.4 6.4-6.4 16.64 0 21.76l60.16 60.16c2.56 2.56 6.4 5.12 11.52 5.12 3.84 0 7.68-1.28 11.52-5.12l12.8-12.8c3.84-3.84 7.68-5.12 12.8-3.84 3.84 1.28 7.68 5.12 8.96 8.96 1.28 2.56 2.56 5.12 3.84 6.4l1.28 1.28 180.48 241.92z" fill="#231C1C" p-id="45739"></path><path d="M214.016 402.2528L412.2112 204.032l18.0992 18.112L232.1152 420.352z" fill="#231C1C" p-id="45740"></path></svg>
