<?xml version="1.0" standalone="no"?><!DOCTYPE svg PUBLIC "-//W3C//DTD SVG 1.1//EN" "http://www.w3.org/Graphics/SVG/1.1/DTD/svg11.dtd"><svg t="1598188911795"  viewBox="0 0 1024 1024" version="1.1" xmlns="http://www.w3.org/2000/svg" p-id="2133" width="16" height="16"><defs><style type="text/css"></style></defs><path d="M498.625 187.104 162.601 523.129c-17.717 17.717-28.699 42.267-28.651 69.344 0.044 27.08 10.935 51.533 28.701 69.299l199.627 199.628c17.67 17.669 42.217 28.654 69.297 28.698 26.983-0.047 51.53-11.031 69.247-28.748l336.122-336.122c8.549-8.549 15.761-18.622 21.205-30.182 5.443-11.554 8.645-23.544 9.791-35.579l22.111-236.447c-0.144-22.781-8.883-45.37-26.268-62.755-17.382-17.382-40.067-26.219-62.85-26.362L564.63 156.063c-12.037 1.144-24.071 4.395-35.723 9.742C517.348 171.25 507.174 178.556 498.625 187.104zM775.574 303.302c-15.187 15.186-39.83 15.186-55.017 0-15.188-15.189-15.188-39.833-0.002-55.019 15.188-15.189 39.833-15.189 55.021-0.001C790.764 263.469 790.764 288.112 775.574 303.302zM459.036 317.629c17.72-17.719 42.267-28.704 69.25-28.751 27.077 0.047 51.624 11.032 69.294 28.701l108.697 108.698c17.767 17.766 28.654 42.217 28.705 69.296 0.047 27.078-10.938 51.625-28.658 69.344L498.482 772.76c-17.717 17.717-42.264 28.701-69.341 28.654-27.083-0.047-51.533-10.936-69.299-28.701L251.144 664.015c-17.67-17.669-28.654-42.217-28.699-69.297 0.048-26.983 11.032-51.53 28.749-69.246L459.036 317.629z" p-id="2134" fill="#707070"></path><path d="M486.304972 372.588763l165.049868 165.049868-19.390096 19.390096-165.049868-165.049868 19.390096-19.390096Z" p-id="2135" fill="#707070"></path><path d="M395.515782 463.377277l165.050575 165.050575-19.387268 19.387268-165.050575-165.050575 19.387268-19.387268Z" p-id="2136" fill="#707070"></path><path d="M304.731614 554.16427l165.049161 165.049161-19.390096 19.390096-165.049161-165.049161 19.390096-19.390096Z" p-id="2137" fill="#707070"></path></svg>
