<svg t="1625328349729"  viewBox="0 0 1024 1024" version="1.1" xmlns="http://www.w3.org/2000/svg" p-id="10721" width="32" height="32"><path d="M800 289.356H224a31.97 31.97 0 0 0 0 63.94h576a31.97 31.97 0 0 0 0-63.94z m0 190.737H224a31.97 31.97 0 1 0 0 63.94h576a31.97 31.97 0 1 0 0-63.94z m0 190.737H224a31.97 31.97 0 0 0 0 63.94h576a31.97 31.97 0 0 0 0-63.94z" p-id="10722"></path><path d="M948.041 156.144A150.75 150.75 0 0 0 809.165 63.94h-0.279l-73.444 1.326a31.988 31.988 0 0 0 1.113 63.965l72.866-1.26a86.124 86.124 0 0 1 61.1 25.45c16.412 16.41 25.367 38.233 25.367 61.44v594.278c0 23.207-8.955 44.957-25.366 61.368a86.06 86.06 0 0 1-61.357 25.378h-594.33c-23.206 0-45.061-8.97-61.473-25.378a86.19 86.19 0 0 1-25.482-61.368V214.861a86.944 86.944 0 0 1 86.94-86.883h73.174a31.97 31.97 0 1 0 0-63.94h-73.159A150.827 150.827 0 0 0 63.94 214.86v594.278a150.599 150.599 0 0 0 150.895 150.686h594.33a150.328 150.328 0 0 0 150.66-150.686V214.861a149.837 149.837 0 0 0-11.784-58.717z" p-id="10723"></path><path d="M415.998 127.88h192a31.97 31.97 0 0 0 0-63.94h-192a31.97 31.97 0 0 0 0 63.94z" p-id="10724"></path></svg>