<svg t="1619246250804" class="icon" viewBox="0 0 1024 1024" version="1.1" xmlns="http://www.w3.org/2000/svg" p-id="6808" width="16" height="16"><path d="M651.4 163.75l-532.06 0c-12.74 0-23.14 10.15-23.48 22.86l0 71.66c0.34 12.70000001 10.74 22.86 23.48 22.86L651.4 281.13c12.95000001 0 23.49-10.5 23.49-23.5l0-70.38c0.01-13-10.54-23.5-23.49-23.5z m0 0M119.34 570.62L580.96 570.62c13.00000001 0 23.5-10.49 23.5-23.5l0-70.38c0-13.00000001-10.5-23.5-23.5-23.5l-461.62 0c-12.66 0-23.02 10.03-23.47 22.63l0 72.11c0.45 12.61 10.81 22.64 23.47 22.64z m0 0M651.4 742.76l-532.06 0c-12.74 0-23.14 10.15-23.48 22.86l0 71.66c0.34 12.70000001 10.74 22.86 23.48 22.86L651.4 860.14c12.95000001 0 23.49-10.5 23.49-23.5l0-70.38c0.01-13-10.54-23.5-23.49-23.5z m0 0M919.61 498.48l-195.23-150.74c-10.85999999-8.77-31.43-3.82-31.43 22.24L692.95 658.41c0 31.64 20.57 31.59 31.43 22.24L919.61 529.92c10.81-8.15 10.08-22.71999999 0-31.44z m0 0" p-id="6809" fill="#ffffff"></path></svg>