<svg t="1598750651203" viewBox="0 0 1024 1024" version="1.1" xmlns="http://www.w3.org/2000/svg" p-id="43825" width="18" height="18"><defs><style type="text/css"></style></defs><path d="M102.6 576h690.8c8.8 0 16 7.2 16 16 0 4.2-1.6 8.4-4.6 11.4L459.2 948.6c-6.2 6.2-16.4 6.2-22.6 0L91.4 603.4c-6.2-6.2-6.2-16.4 0-22.6 3-3 7-4.8 11.2-4.8z" p-id="43826"></path><path d="M448 973.4c-9.2 0-18.4-3.6-25.4-10.6L61.2 601.4c-14-14-14-36.8 0-51l14.2 14.2-14.2-14.2L422.6 189.2c6.8-6.8 15.8-10.6 25.4-10.6 9.6 0 18.6 3.8 25.4 10.6l361.4 361.4c14 14 14 36.8 0 51L473.4 962.8c-7 7-16.2 10.6-25.4 10.6zM92.2 576L448 931.8 803.8 576 448 220.2 92.2 576z m-2.8 2.8z" fill="#2660D0" p-id="43827"></path><path d="M760.2 524c-5.2 0-10.2-2-14.2-5.8l-440.2-442c-7.8-7.8-7.8-20.4 0-28.2 7.8-7.8 20.4-7.8 28.2 0l440.2 442c7.8 7.8 7.8 20.4 0 28.2-3.8 3.8-8.8 5.8-14 5.8z" fill="#2660D0" p-id="43828"></path><path d="M870 832c35.4 0 64-28.6 64-64 0-23.6-21.4-66.2-64-128-42.6 61.8-64 104.4-64 128 0 35.4 28.6 64 64 64z"  p-id="43829"></path><path d="M870 852c-46.4 0-84-37.6-84-84 0-17.8 7-51.8 67.6-139.4 3.8-5.4 9.8-8.6 16.4-8.6s12.8 3.2 16.4 8.6c60.6 87.6 67.6 121.6 67.6 139.4 0 46.4-37.6 84-84 84z m0-176.2c-20.8 32.2-44 72.4-44 92.2 0 24.2 19.8 44 44 44s44-19.8 44-44c0-9.6-6.2-33.8-44-92.2z" fill="#2660D0" p-id="43830"></path></svg>
