<svg width="800" height="400" viewBox="0 0 800 400" xmlns="http://www.w3.org/2000/svg"><mask id="satori_om-id"><rect x="0" y="0" width="800" height="400" fill="#fff"/></mask><rect x="0" y="0" width="800" height="400" fill="white"/><mask id="satori_om-id-0"><rect x="42" y="42" width="152" height="24" fill="#fff"/></mask><mask id="satori_om-id-0-0"><rect x="42" y="42" width="24" height="24" fill="#fff"/></mask><rect x="42" y="42" width="24" height="24" fill="black"/><mask id="satori_om-id-0-1"><rect x="74" y="42" width="120" height="24" fill="#fff"/></mask><path fill="black" d="M78.2 64.8L75.2 64.8L75.2 49.8L78.2 49.8L78.2 51.6L78.3 51.6Q78.5 51.2 78.9 50.7Q79.3 50.3 79.9 50.0Q80.5 49.7 81.4 49.7L81.4 49.7Q82.6 49.7 83.6 50.3Q84.6 50.9 85.2 52.2Q85.8 53.4 85.8 55.3L85.8 55.3Q85.8 57.1 85.3 58.4Q84.7 59.6 83.7 60.3Q82.7 60.9 81.4 60.9L81.4 60.9Q80.5 60.9 79.9 60.6Q79.3 60.3 78.9 59.9Q78.5 59.4 78.3 59.0L78.3 59.0L78.2 59.0L78.2 64.8ZM78.2 55.3L78.2 55.3Q78.2 56.2 78.4 57.0Q78.7 57.7 79.2 58.1Q79.7 58.5 80.5 58.5L80.5 58.5Q81.2 58.5 81.7 58.1Q82.2 57.7 82.5 56.9Q82.8 56.2 82.8 55.3L82.8 55.3Q82.8 54.3 82.5 53.6Q82.2 52.9 81.7 52.5Q81.2 52.1 80.5 52.1L80.5 52.1Q79.7 52.1 79.2 52.5Q78.7 52.9 78.4 53.6Q78.2 54.3 78.2 55.3ZM90.6 60.9L90.6 60.9Q89.6 60.9 88.8 60.6Q88.0 60.2 87.5 59.5Q87.0 58.8 87.0 57.7L87.0 57.7Q87.0 56.8 87.4 56.1Q87.7 55.5 88.3 55.2Q88.8 54.8 89.6 54.6Q90.3 54.4 91.1 54.3L91.1 54.3Q92.1 54.2 92.7 54.1Q93.2 54.0 93.5 53.9Q93.8 53.7 93.8 53.3L93.8 53.3L93.8 53.3Q93.8 52.6 93.3 52.2Q92.9 51.9 92.1 51.9L92.1 51.9Q91.3 51.9 90.8 52.2Q90.4 52.6 90.2 53.1L90.2 53.1L87.4 52.9Q87.6 51.9 88.2 51.2Q88.9 50.5 89.9 50.1Q90.9 49.7 92.2 49.7L92.2 49.7Q93.1 49.7 93.9 49.9Q94.7 50.1 95.4 50.5Q96.0 51.0 96.4 51.7Q96.8 52.4 96.8 53.4L96.8 53.4L96.8 60.7L93.9 60.7L93.9 59.2L93.8 59.2Q93.6 59.7 93.1 60.1Q92.7 60.5 92.1 60.7Q91.5 60.9 90.6 60.9ZM91.5 58.8L91.5 58.8Q92.2 58.8 92.7 58.6Q93.2 58.3 93.5 57.9Q93.8 57.4 93.8 56.8L93.8 56.8L93.8 55.7Q93.6 55.8 93.4 55.8Q93.2 55.9 92.8 56.0Q92.5 56.0 92.2 56.1Q91.9 56.1 91.7 56.2L91.7 56.2Q91.2 56.2 90.8 56.4Q90.4 56.6 90.1 56.9Q89.9 57.1 89.9 57.6L89.9 57.6Q89.9 58.2 90.4 58.5Q90.8 58.8 91.5 58.8ZM103.7 65.0L103.7 65.0Q102.3 65.0 101.2 64.6Q100.2 64.2 99.6 63.5Q98.9 62.9 98.8 62.0L98.8 62.0L101.5 61.6Q101.7 61.9 102.0 62.2Q102.2 62.5 102.7 62.7Q103.1 62.9 103.8 62.9L103.8 62.9Q104.8 62.9 105.4 62.4Q106.1 61.9 106.1 60.8L106.1 60.8L106.1 58.8L106.0 58.8Q105.8 59.2 105.4 59.6Q105.0 60.1 104.3 60.3Q103.7 60.6 102.8 60.6L102.8 60.6Q101.6 60.6 100.6 60.0Q99.6 59.4 99.0 58.2Q98.4 57.1 98.4 55.2L98.4 55.2Q98.4 53.4 99.0 52.1Q99.6 50.9 100.6 50.3Q101.6 49.7 102.8 49.7L102.8 49.7Q103.8 49.7 104.4 50.0Q105.0 50.3 105.4 50.7Q105.7 51.2 106.0 51.6L106.0 51.6L106.1 51.6L106.1 49.8L109.1 49.8L109.1 60.8Q109.1 62.2 108.4 63.2Q107.7 64.1 106.5 64.6Q105.3 65.0 103.7 65.0ZM103.8 58.3L103.8 58.3Q104.5 58.3 105.0 57.9Q105.5 57.6 105.8 56.9Q106.1 56.2 106.1 55.2L106.1 55.2Q106.1 54.3 105.8 53.6Q105.6 52.9 105.0 52.5Q104.5 52.1 103.8 52.1L103.8 52.1Q103.1 52.1 102.5 52.5Q102.0 52.9 101.8 53.6Q101.5 54.3 101.5 55.2L101.5 55.2Q101.5 56.2 101.8 56.9Q102.0 57.5 102.5 57.9Q103.1 58.3 103.8 58.3ZM116.1 60.9L116.1 60.9Q114.5 60.9 113.2 60.2Q112.0 59.6 111.4 58.3Q110.7 57.0 110.7 55.3L110.7 55.3Q110.7 53.6 111.4 52.4Q112.0 51.1 113.2 50.4Q114.4 49.7 116.0 49.7L116.0 49.7Q117.1 49.7 118.0 50.0Q119.0 50.4 119.7 51.0Q120.4 51.7 120.8 52.8Q121.1 53.8 121.1 55.2L121.1 55.2L121.1 56.0L111.9 56.0L111.9 54.2L118.3 54.2Q118.3 53.5 118.0 53.0Q117.7 52.5 117.2 52.2Q116.7 51.9 116.1 51.9L116.1 51.9Q115.4 51.9 114.8 52.2Q114.3 52.6 114.0 53.1Q113.7 53.6 113.7 54.3L113.7 54.3L113.7 56.0Q113.7 56.9 114.0 57.4Q114.3 58.0 114.9 58.4Q115.4 58.7 116.2 58.7L116.2 58.7Q116.7 58.7 117.1 58.5Q117.5 58.4 117.8 58.1Q118.1 57.8 118.3 57.4L118.3 57.4L121.1 57.6Q120.9 58.6 120.2 59.4Q119.6 60.1 118.5 60.5Q117.5 60.9 116.1 60.9ZM125.8 54.4L125.8 54.4L125.8 60.7L122.8 60.7L122.8 49.8L125.7 49.8L125.7 51.7L125.8 51.7Q126.2 50.8 127.0 50.2Q127.9 49.7 129.1 49.7L129.1 49.7Q130.2 49.7 131.1 50.2Q131.9 50.7 132.4 51.6Q132.9 52.5 132.9 53.8L132.9 53.8L132.9 60.7L129.8 60.7L129.8 54.3Q129.8 53.3 129.3 52.7Q128.8 52.2 127.9 52.2L127.9 52.2Q127.3 52.2 126.8 52.4Q126.3 52.7 126.1 53.2Q125.8 53.7 125.8 54.4ZM139.8 60.9L139.8 60.9Q138.2 60.9 137.0 60.2Q135.8 59.5 135.1 58.3Q134.5 57.0 134.5 55.3L134.5 55.3Q134.5 53.6 135.1 52.4Q135.8 51.1 137.0 50.4Q138.2 49.7 139.8 49.7L139.8 49.7Q141.5 49.7 142.7 50.4Q143.9 51.1 144.6 52.4Q145.2 53.6 145.2 55.3L145.2 55.3Q145.2 57.0 144.6 58.3Q143.9 59.5 142.7 60.2Q141.5 60.9 139.8 60.9ZM139.9 58.6L139.9 58.6Q140.6 58.6 141.1 58.2Q141.6 57.7 141.9 57.0Q142.1 56.2 142.1 55.3L142.1 55.3Q142.1 54.3 141.9 53.6Q141.6 52.8 141.1 52.4Q140.6 52.0 139.9 52.0L139.9 52.0Q139.1 52.0 138.6 52.4Q138.1 52.8 137.8 53.6Q137.5 54.3 137.5 55.3L137.5 55.3Q137.5 56.2 137.8 57.0Q138.1 57.7 138.6 58.2Q139.1 58.6 139.9 58.6ZM146.1 49.8L152.7 49.8L152.7 52.1L146.1 52.1L146.1 49.8ZM147.6 57.8L147.6 47.2L150.6 47.2L150.6 57.4Q150.6 57.8 150.7 58.0Q150.9 58.2 151.1 58.3Q151.3 58.4 151.6 58.4L151.6 58.4Q151.9 58.4 152.1 58.4Q152.3 58.4 152.4 58.3L152.4 58.3L152.9 60.6Q152.6 60.7 152.2 60.8Q151.8 60.8 151.2 60.9L151.2 60.9Q150.1 60.9 149.3 60.6Q148.5 60.2 148.0 59.5Q147.6 58.8 147.6 57.8L147.6 57.8ZM159.2 60.9L159.2 60.9Q157.5 60.9 156.3 60.2Q155.1 59.6 154.4 58.3Q153.8 57.0 153.8 55.3L153.8 55.3Q153.8 53.6 154.4 52.4Q155.1 51.1 156.3 50.4Q157.4 49.7 159.1 49.7L159.1 49.7Q160.1 49.7 161.1 50.0Q162.0 50.4 162.7 51.0Q163.4 51.7 163.8 52.8Q164.2 53.8 164.2 55.2L164.2 55.2L164.2 56.0L155.0 56.0L155.0 54.2L161.3 54.2Q161.3 53.5 161.0 53.0Q160.8 52.5 160.3 52.2Q159.8 51.9 159.1 51.9L159.1 51.9Q158.4 51.9 157.9 52.2Q157.4 52.6 157.1 53.1Q156.8 53.6 156.8 54.3L156.8 54.3L156.8 56.0Q156.8 56.9 157.1 57.4Q157.4 58.0 157.9 58.4Q158.5 58.7 159.2 58.7L159.2 58.7Q159.7 58.7 160.1 58.5Q160.6 58.4 160.9 58.1Q161.2 57.8 161.3 57.4L161.3 57.4L164.1 57.6Q163.9 58.6 163.2 59.4Q162.6 60.1 161.6 60.5Q160.5 60.9 159.2 60.9ZM167.6 60.9L167.6 60.9Q166.9 60.9 166.4 60.4Q165.9 59.9 165.9 59.2L165.9 59.2Q165.9 58.5 166.4 58.0Q166.9 57.5 167.6 57.5L167.6 57.5Q168.3 57.5 168.8 58.0Q169.3 58.5 169.3 59.2L169.3 59.2Q169.3 59.7 169.1 60.1Q168.8 60.4 168.4 60.7Q168.1 60.9 167.6 60.9ZM176.4 60.9L176.4 60.9Q174.7 60.9 173.5 60.2Q172.3 59.5 171.7 58.2Q171.0 57.0 171.0 55.3L171.0 55.3Q171.0 53.6 171.7 52.4Q172.3 51.1 173.5 50.4Q174.7 49.7 176.4 49.7L176.4 49.7Q177.8 49.7 178.9 50.2Q180.0 50.7 180.6 51.6Q181.2 52.6 181.3 53.8L181.3 53.8L178.4 53.8Q178.3 53.0 177.8 52.5Q177.3 52.0 176.4 52.0L176.4 52.0Q175.7 52.0 175.2 52.4Q174.7 52.8 174.4 53.5Q174.1 54.2 174.1 55.3L174.1 55.3Q174.1 56.3 174.4 57.0Q174.7 57.8 175.2 58.2Q175.7 58.5 176.4 58.5L176.4 58.5Q177.0 58.5 177.4 58.3Q177.8 58.1 178.1 57.7Q178.3 57.3 178.4 56.7L178.4 56.7L181.3 56.7Q181.2 58.0 180.6 58.9Q180.0 59.9 178.9 60.4Q177.9 60.9 176.4 60.9ZM185.9 54.4L185.9 54.4L185.9 60.7L182.9 60.7L182.9 49.8L185.8 49.8L185.8 51.7L185.9 51.7Q186.3 50.8 187.1 50.2Q188.0 49.7 189.2 49.7L189.2 49.7Q190.3 49.7 191.2 50.2Q192.0 50.7 192.5 51.6Q193.0 52.5 193.0 53.8L193.0 53.8L193.0 60.7L189.9 60.7L189.9 54.3Q189.9 53.3 189.4 52.7Q188.9 52.2 188.0 52.2L188.0 52.2Q187.4 52.2 186.9 52.4Q186.4 52.7 186.2 53.2Q185.9 53.7 185.9 54.4Z "/><mask id="satori_om-id-1"><rect x="152" y="146" width="496" height="108" fill="#fff"/></mask><rect x="152" y="146" width="496" height="108" fill="black"/><path fill="white" d="M220.6 213.1L220.6 181.0L223.8 181.0L223.8 213.1Q223.8 214.7 223.3 215.5Q222.8 216.3 221.8 216.7L221.8 216.7Q220.6 217.1 218.7 217.2Q216.8 217.3 214.0 217.3L214.0 217.3Q214.0 216.9 213.7 216.3Q213.5 215.7 213.3 215.1Q213.0 214.6 212.8 214.1L212.8 214.1Q214.3 214.2 215.6 214.2Q217 214.2 218.0 214.2Q219.0 214.2 219.4 214.2L219.4 214.2Q220.0 214.1 220.3 213.9Q220.6 213.7 220.6 213.1L220.6 213.1ZM230.2 191.2L230.2 191.2L233.1 190.1Q234.9 192.9 236.5 196.1Q238.1 199.3 239.3 202.4Q240.5 205.5 241.0 207.9L241.0 207.9L237.8 209.2Q237.4 206.8 236.2 203.7Q235.1 200.6 233.5 197.4Q231.9 194.1 230.2 191.2ZM210.1 190.4L210.1 190.4L213.4 191.0Q212.8 193.9 211.8 197.1Q210.8 200.3 209.4 203.3Q208.0 206.3 206.1 208.5L206.1 208.5Q205.8 208.3 205.3 208.0Q204.8 207.7 204.2 207.4Q203.7 207.1 203.3 206.9L203.3 206.9Q205.1 204.8 206.4 202.0Q207.7 199.1 208.7 196.1Q209.6 193.1 210.1 190.4ZM245.9 217.3L245.9 191.3L258.0 191.3Q258.2 190.7 258.4 189.9L258.4 189.9Q258.8 188.4 259.2 186.8L259.2 186.8Q259.3 186.2 259.4 185.6L259.4 185.6L243.8 185.6L243.8 182.5L279.7 182.5L279.7 185.6L263 185.6Q262.5 187.3 262 189.0L262 189.0Q261.6 190.3 261.2 191.3L261.2 191.3L277.6 191.3L277.6 213.5Q277.6 214.8 277.3 215.5Q277 216.1 276.1 216.5L276.1 216.5Q275.2 216.9 273.6 217.0Q272.1 217.1 270.0 217.1L270.0 217.1Q269.9 216.4 269.6 215.6Q269.3 214.8 269.0 214.2L269.0 214.2Q270.6 214.3 272 214.3Q273.4 214.3 273.8 214.2L273.8 214.2Q274.3 214.2 274.4 214.1Q274.6 213.9 274.6 213.5L274.6 213.5L274.6 194.2L267.8 194.2L267.8 216.0L264.8 216.0L264.8 194.2L258.2 194.2L258.2 216.0L255.3 216.0L255.3 194.2L248.9 194.2L248.9 217.3L245.9 217.3ZM285.3 188.7L285.3 186.1L293.4 186.1Q293.1 185.2 292.4 184.1L292.4 184.1Q291.5 182.6 290.4 181.5L290.4 181.5L293 180.4Q294.1 181.5 295.1 182.9Q296.0 184.3 296.5 185.5L296.5 185.5L295.1 186.1L307.2 186.1L305.7 185.5Q306.3 184.8 306.9 183.9Q307.6 183.0 308.2 182.1Q308.8 181.1 309.2 180.4L309.2 180.4L312.3 181.3Q311.3 182.7 310.3 184.1L310.3 184.1Q309.4 185.2 308.6 186.1L308.6 186.1L317.5 186.1L317.5 188.7L302.8 188.7L302.8 192.0L315.7 192.0L315.7 194.6L302.8 194.6L302.8 198.0L319.0 198.0L319.0 200.7L302.7 200.7Q302.4 202.7 302 204.4L302 204.4L319.5 204.4L319.5 207.1L304.5 207.1Q306.3 210.0 309.4 211.7L309.4 211.7Q313.5 213.9 320.0 214.5L320.0 214.5Q319.7 214.9 319.4 215.4Q319 215.9 318.7 216.4Q318.4 216.9 318.2 217.3L318.2 217.3Q313.6 216.7 310.2 215.3Q306.8 213.9 304.5 211.6L304.5 211.6Q302.6 209.7 301.4 207.1L301.4 207.1L301.2 207.1Q300.7 208.4 300.0 209.6L300.0 209.6Q298.8 211.5 296.8 212.9Q294.8 214.4 291.7 215.5Q288.7 216.5 284.4 217.3L284.4 217.3Q284.3 216.9 284.0 216.4Q283.8 215.9 283.5 215.4Q283.2 214.9 282.8 214.6L282.8 214.6Q286.9 214.0 289.7 213.1Q292.5 212.2 294.3 211.0Q296.2 209.7 297.2 208.1L297.2 208.1Q297.5 207.7 297.8 207.1L297.8 207.1L283.4 207.1L283.4 204.4L298.8 204.4Q299.2 202.7 299.5 200.7L299.5 200.7L283.7 200.7L283.7 198.0L299.8 198.0L299.8 194.6L287.2 194.6L287.2 192.0L299.8 192.0L299.8 188.7L285.3 188.7ZM324.5 216.2L324.5 186.9L329.0 186.9Q329.3 186.1 329.6 185.2L329.6 185.2Q329.9 183.9 330.2 182.7Q330.5 181.4 330.6 180.4L330.6 180.4L333.9 180.9Q333.3 182.8 332.6 184.7L332.6 184.7Q332.2 185.9 331.8 186.9L331.8 186.9L338.4 186.9L338.4 213.1L327.3 213.1L327.3 216.2L324.5 216.2ZM345.0 180.3L345.0 180.3L347.8 180.9Q347.1 183.9 346.1 186.8L346.1 186.8L358.2 186.8L358.2 187.7Q358.2 188.1 358.2 188.3L358.2 188.3Q357.9 195.2 357.7 199.9Q357.5 204.7 357.2 207.7Q356.8 210.7 356.4 212.4Q356 214.1 355.4 214.8L355.4 214.8Q354.7 215.7 354.0 216.0Q353.2 216.4 352.2 216.5L352.2 216.5Q351.2 216.6 349.5 216.6Q347.9 216.5 346.2 216.4L346.2 216.4Q346.2 215.8 345.9 214.9Q345.6 214.1 345.2 213.5L345.2 213.5Q347.2 213.7 348.8 213.7Q350.4 213.8 351.2 213.8L351.2 213.8Q351.8 213.8 352.1 213.6Q352.5 213.5 352.9 213.1L352.9 213.1Q353.4 212.6 353.7 211.0Q354.1 209.3 354.4 206.3Q354.7 203.3 354.9 198.7L354.9 198.7Q355.1 194.8 355.3 189.5L355.3 189.5L345.0 189.5Q344.5 190.9 343.9 192.2L343.9 192.2Q342.6 194.7 341.3 196.6L341.3 196.6Q341 196.4 340.5 196.0Q340.1 195.7 339.6 195.4Q339.1 195.1 338.8 194.9L338.8 194.9Q340.2 193.1 341.3 190.8Q342.5 188.4 343.4 185.7Q344.3 183.1 345.0 180.3ZM335.7 200.7L327.3 200.7L327.3 210.3L335.7 210.3L335.7 200.7ZM335.7 189.6L327.3 189.6L327.3 198.0L335.7 198.0L335.7 189.6ZM343.1 197.1L343.1 197.1L345.5 195.8Q346.6 197.2 347.8 198.9Q349.0 200.6 350.1 202.1Q351.2 203.7 351.8 204.9L351.8 204.9L349.2 206.5Q348.6 205.3 347.6 203.6Q346.6 202.0 345.4 200.3Q344.2 198.6 343.1 197.1ZM368.7 193.6L368.7 193.6L370.3 191.8Q372.3 193.7 374.4 195.8L374.4 195.8Q375.0 191.1 375.1 185.7L375.1 185.7L367.2 185.7L367.2 217.2L364.2 217.2L364.2 182.9L397.4 182.9L397.4 213.4Q397.4 214.7 397.0 215.5Q396.6 216.2 395.8 216.6L395.8 216.6Q394.8 217.0 393.3 217.1Q391.7 217.2 389.2 217.1L389.2 217.1Q389.1 216.8 388.9 216.2Q388.7 215.7 388.5 215.2Q388.3 214.7 388.1 214.3L388.1 214.3Q390.0 214.3 391.5 214.3L391.5 214.3L393.5 214.3Q394.0 214.3 394.3 214.1Q394.5 213.9 394.5 213.4L394.5 213.4L394.5 185.7L388.5 185.7Q388.3 191.8 387.6 196.9L387.6 196.9Q387.6 197.3 387.5 197.8L387.5 197.8Q387.6 197.9 387.7 198.0L387.7 198.0Q389.2 199.7 390.4 201.4Q391.7 203.0 392.5 204.3L392.5 204.3L390.7 206.5Q389.8 205.1 388.6 203.4L388.6 203.4Q387.8 202.3 386.9 201.3L386.9 201.3Q386.4 203.9 385.6 206.3L385.6 206.3Q384.1 210.5 381.5 213.6L381.5 213.6Q381.3 213.3 380.9 213.0Q380.4 212.7 380.0 212.3Q379.5 212.0 379.2 211.8L379.2 211.8Q381.8 208.9 383.1 205.0L383.1 205.0Q384.1 202.1 384.7 198.6L384.7 198.6Q383.8 197.5 382.8 196.4L382.8 196.4Q381.2 194.7 379.6 193.2L379.6 193.2L381.3 191.4Q382.9 192.9 384.5 194.5L384.5 194.5Q384.8 194.9 385.1 195.2L385.1 195.2Q385.6 190.8 385.8 185.7L385.8 185.7L377.9 185.7Q377.6 191.7 376.9 196.7L376.9 196.7Q376.8 197.6 376.7 198.4L376.7 198.4Q377.5 199.3 378.2 200.2L378.2 200.2Q379.9 202.4 381.0 204.1L381.0 204.1L379.2 206.2Q378.1 204.5 376.4 202.2L376.4 202.2Q376.2 202.0 376.0 201.8L376.0 201.8Q375.5 204.1 374.8 206.1L374.8 206.1Q373.4 210.3 370.9 213.5L370.9 213.5Q370.7 213.3 370.2 212.9Q369.8 212.5 369.3 212.2Q368.9 211.9 368.6 211.7L368.6 211.7Q371.0 208.9 372.4 204.9L372.4 204.9Q373.3 202.2 373.8 199.1L373.8 199.1Q373.3 198.5 372.7 197.7L372.7 197.7Q370.6 195.5 368.7 193.6ZM403.4 185.5L403.4 182.7L437.8 182.7L437.8 185.5L421.8 185.5Q421.2 186.9 420.5 188.3L420.5 188.3Q420.0 189.4 419.6 190.3L419.6 190.3L434.0 190.3L434.0 208.9L430.8 208.9L430.8 193.1L410.3 193.1L410.3 208.9L407.2 208.9L407.2 190.3L416.6 190.3Q416.8 189.6 417.2 188.8L417.2 188.8Q417.6 187.6 418.1 186.3L418.1 186.3Q418.2 185.9 418.4 185.5L418.4 185.5L403.4 185.5ZM419.0 202.8L419.0 195.6L422.0 195.6L422.0 202.9Q422.0 204.5 421.7 206.1Q421.3 207.8 420.2 209.3Q419.2 210.9 417.2 212.3Q415.3 213.7 412.1 215.0Q408.9 216.2 404.2 217.3L404.2 217.3Q404.1 216.9 403.8 216.5Q403.4 216.1 403.1 215.6Q402.8 215.1 402.4 214.8L402.4 214.8Q406.9 213.9 409.9 212.9Q412.8 211.8 414.7 210.5Q416.5 209.3 417.4 208.0Q418.4 206.7 418.7 205.4Q419.0 204.1 419.0 202.8L419.0 202.8ZM422.2 209.7L422.2 209.7L424.0 207.6Q425.7 208.4 427.6 209.3Q429.5 210.2 431.4 211.2Q433.2 212.2 434.9 213.2Q436.5 214.2 437.7 215.0L437.7 215.0L435.8 217.4Q434.7 216.5 433.1 215.5Q431.5 214.5 429.6 213.5Q427.8 212.5 425.9 211.5Q424.0 210.5 422.2 209.7ZM476.0 183.7L458.7 183.7L458.7 186.5L476.0 186.5ZM456.6 199.7C455.8 198.6 452.4 194.3 451.2 192.9L451.2 191.8L456.4 191.8L456.4 189.0L451.2 189.0L451.2 180.6L448.2 180.6L448.2 189.0L442.2 189.0L442.2 191.8L447.6 191.8C446.3 196.8 443.7 202.5 441.2 205.5C441.7 206.2 442.5 207.4 442.8 208.2C444.9 205.7 446.8 201.5 448.2 197.2L448.2 217.1L451.2 217.1L451.2 196.3C452.5 198.3 454.2 200.7 454.8 202.0ZM459.7 200.4C458.7 204.6 456.9 208.9 454.7 211.7C455.4 212.0 456.5 212.9 457.0 213.3C459.2 210.2 461.2 205.6 462.4 201.0ZM478.1 195.9L478.1 193.1L457.0 193.1L457.0 195.9L465.5 195.9L465.5 213.3C465.5 213.8 465.3 213.9 464.7 214.0C464.2 214.0 462.4 214.0 460.3 213.9C460.6 214.8 461.1 216.1 461.2 217.0C464.0 217.0 465.8 216.9 467.0 216.4C468.1 215.9 468.4 215.0 468.4 213.3L468.4 195.9ZM471.2 201.1C473.0 205.0 474.9 210.2 475.4 213.3L478.2 212.3C477.5 209.2 475.6 204.1 473.6 200.3ZM493.2 187.7C491.8 186.1 489.0 183.5 486.9 181.6L484.9 183.4C487.1 185.3 489.8 188.1 491.0 189.8ZM491.0 210.3L491.0 193.1L481.8 193.1L481.8 196.0L488.1 196.0L488.1 210.3C488.1 212.2 486.9 213.5 486.2 214.1C486.7 214.6 487.5 215.7 487.8 216.3L487.8 216.3C488.4 215.5 489.5 214.7 496.1 210.0C495.8 209.4 495.4 208.3 495.2 207.5ZM503.4 213.7C500.8 213.7 500.3 213.3 500.3 211.7L500.3 199.3L512.4 199.3L512.4 201.3L515.3 201.3L515.3 183.4L496.5 183.4L496.5 186.3L512.4 186.3L512.4 196.4L497.3 196.4L497.3 211.7C497.3 215.5 498.7 216.5 503.2 216.5L512.3 216.5C516.7 216.5 517.6 214.7 518.1 208.3C517.2 208.1 516.0 207.5 515.2 207.0C515 212.7 514.6 213.7 512.1 213.7ZM523.6 188.1L523.6 185.0L555.4 185.0L555.4 188.1L541.0 188.1L541.0 211.2L557.5 211.2L557.5 214.2L521.5 214.2L521.5 211.2L537.7 211.2L537.7 188.1L523.6 188.1ZM588.4 190.6L570.1 190.6L570.1 194.4L588.4 194.4L588.4 190.6ZM588.4 196.7L570.1 196.7L570.1 200.5L588.4 200.5L588.4 196.7ZM588.4 184.5L570.1 184.5L570.1 188.3L588.4 188.3L588.4 184.5ZM567.2 202.9L567.2 182.1L591.5 182.1L591.5 202.9L567.2 202.9ZM561.4 208.5L561.4 205.7L596.9 205.7L596.9 208.5L561.4 208.5ZM582.5 211.7L582.5 211.7L584.6 209.7Q586.9 210.6 589.3 211.5Q591.6 212.5 593.7 213.4Q595.8 214.3 597.3 215.2L597.3 215.2L594.4 217.3Q593.1 216.4 591.1 215.5Q589.2 214.5 587.0 213.5Q584.7 212.6 582.5 211.7ZM573.2 209.5L573.2 209.5L575.9 211.5Q574.2 212.5 572.1 213.6Q569.9 214.7 567.6 215.6Q565.3 216.5 563.2 217.2L563.2 217.2Q562.9 216.7 562.3 216.1Q561.7 215.4 561.2 214.9L561.2 214.9Q563.2 214.3 565.5 213.4Q567.8 212.5 569.8 211.5Q571.8 210.5 573.2 209.5Z "/></svg>