<?xml version="1.0" standalone="no"?><!DOCTYPE svg PUBLIC "-//W3C//DTD SVG 1.1//EN" "http://www.w3.org/Graphics/SVG/1.1/DTD/svg11.dtd"><svg class="icon" width="18px" height="18.00px" viewBox="0 0 1024 1024" version="1.1" xmlns="http://www.w3.org/2000/svg"><path d="M878.08 731.274667a32 32 0 0 1-54.88-32.938667A360.789333 360.789333 0 0 0 874.666667 512c0-200.298667-162.368-362.666667-362.666667-362.666667S149.333333 311.701333 149.333333 512s162.368 362.666667 362.666667 362.666667a360.789333 360.789333 0 0 0 186.314667-51.445334 32 32 0 0 1 32.928 54.88A424.778667 424.778667 0 0 1 512 938.666667C276.362667 938.666667 85.333333 747.637333 85.333333 512S276.362667 85.333333 512 85.333333s426.666667 191.029333 426.666667 426.666667c0 78.293333-21.152 153.568-60.586667 219.274667zM650.666667 437.333333c0 65.898667-46.72 120.853333-109.194667 135.082667V608a32 32 0 0 1-64 0v-64a32 32 0 0 1 32-32C552.266667 512 586.666667 478.4 586.666667 437.333333s-34.4-74.666667-77.194667-74.666666c-26.773333 0-51.082667 13.248-65.173333 34.624a73.088 73.088 0 0 0-8.522667 17.717333 32 32 0 0 1-60.885333-19.690667c3.797333-11.754667 9.173333-22.933333 15.978666-33.237333 25.856-39.253333 70.186667-63.413333 118.613334-63.413333C587.274667 298.666667 650.666667 360.576 650.666667 437.333333zM512 736a32 32 0 1 1 0-64 32 32 0 0 1 0 64z" fill="#000000" /></svg>
