<svg t="1685541577327" class="icon" viewBox="0 0 1024 1024" version="1.1" xmlns="http://www.w3.org/2000/svg" p-id="9837"
     width="32" height="32">
    <path d="M926.47619 975.238095H97.52381c-53.638095 0-97.52381-43.885714-97.52381-97.523809V390.095238c0-53.638095 43.885714-97.52381 97.52381-97.523809h828.95238c53.638095 0 97.52381 43.885714 97.52381 97.523809v487.619048c0 53.638095-43.885714 97.52381-97.52381 97.523809z"
          fill="#8F65FF" p-id="9838"></path>
    <path d="M889.904762 463.238095h-755.809524c-19.504762 0-36.571429-17.066667-36.571428-36.571428S114.590476 390.095238 134.095238 390.095238h755.809524c19.504762 0 36.571429 17.066667 36.571428 36.571429s-17.066667 36.571429-36.571428 36.571428z"
          fill="#FFFFFF" p-id="9839"></path>
    <path d="M889.904762 877.714286h-121.904762c-19.504762 0-36.571429-17.066667-36.571429-36.571429s17.066667-36.571429 36.571429-36.571428h121.904762c19.504762 0 36.571429 17.066667 36.571428 36.571428s-17.066667 36.571429-36.571428 36.571429zM646.095238 877.714286h-121.904762c-19.504762 0-36.571429-17.066667-36.571428-36.571429s17.066667-36.571429 36.571428-36.571428h121.904762c19.504762 0 36.571429 17.066667 36.571429 36.571428s-17.066667 36.571429-36.571429 36.571429z"
          fill="#C7B2FF" p-id="9840"></path>
    <path d="M343.771429 58.514286c-48.761905-21.942857-107.27619-2.438095-129.219048 46.323809L126.780952 292.571429h719.238096L343.771429 58.514286z"
          fill="#C7B2FF" p-id="9841"></path>
</svg>
