<?xml version="1.0" standalone="no"?><!DOCTYPE svg PUBLIC "-//W3C//DTD SVG 1.1//EN" "http://www.w3.org/Graphics/SVG/1.1/DTD/svg11.dtd"><svg class="icon" width="16px" height="16.00px" viewBox="0 0 1024 1024" version="1.1" xmlns="http://www.w3.org/2000/svg"><path d="M385.900718 102.4371c18.437527-75.54889 194.71827-51.715014 232.942411-4.946654C668.75936 158.199376 564.42994 317.39168 539.696673 371.355173c-65.205887 138.056603-157.393521 468.133301-307.59191 513.552575-252.729025 76.448282-103.879724-337.271831-62.957409-433.057031s77.797369-216.303668 161.890479-269.817465c62.957408-40.922315 59.809538-27.881138 126.364513-3.597566 44.969577 16.638744 92.63733 31.029008 139.40569 44.969577 14.390265 4.047262 44.969577-26.981746 30.579313-31.478704A2421.162051 2421.162051 0 0 1 352.173535 92.543793c-9.893307-4.047262-25.632659 7.644828-30.129617 15.289656A2639.714197 2639.714197 0 0 0 85.50394 581.812796c-57.561059 155.145042-40.922315 210.457623 13.041178 365.602664 2.698175 7.195132 9.893307 5.396349 15.739352 3.597567C261.784684 901.996187 319.345743 901.996187 384.101935 767.087455c58.910146-123.666338 116.920901-247.782372 175.831048-371.898406 28.78053-60.259234 57.111363-119.619076 89.939154-179.87831-11.242394 19.786614 52.16471-89.939155 52.16471-89.939155-8.993915-74.649499-189.771617-134.908732-253.178721-124.116033S364.315321 56.568131 348.126273 117.726756c-4.496958 18.437527 34.176879 0 37.324749-15.289656z"  /><path d="M82.35607 718.520311c21.135701-17.088439 67.00467-41.372011 81.844631-8.094524a186.623746 186.623746 0 0 1 4.946653 44.969578c0 14.390265 26.532051-2.698175 30.129617-6.295741s24.733268-30.579313 37.32475-25.182964 13.490873 49.916231 13.041177 60.70893 12.141786 4.946654 15.739352 3.597566c13.940569-6.295741 38.673837-24.283572 49.01684-11.242394s3.597566 30.579313 3.597566 40.922315 37.774445-6.745437 37.774445-22.035093v-55.31258c0-5.396349-7.644828-5.396349-11.242395-4.946653a317.035521 317.035521 0 0 0-72.850715 22.484788l15.739352 3.597567c0-23.833876-4.047262-77.797369-37.774445-76.448282-26.532051 0-56.211972 36.425358-73.300411 53.513797l30.129617-6.295741c-4.496958-40.922315 2.698175-75.54889-44.969578-72.40102a167.736524 167.736524 0 0 0-92.637329 41.372012c-20.686006 17.088439-7.644828 34.626575 13.490873 17.538135z"  /><path d="M197.927884 660.05986c0-100.282158 61.608321-185.274659 109.725769-269.817464l127.7136-224.847888c12.141786-21.135701-27.881138-4.496958-34.626575 7.195133C344.978402 272.422103 289.216126 369.55639 233.45385 467.590069a427.660682 427.660682 0 0 0-73.300411 214.504884c0 14.390265 37.774445-6.745437 37.774445-22.035093zM256.388335 714.922745c58.910146-203.26249 214.95458-339.070614 294.550732-529.741623 9.893307-22.934485-29.230225-5.846045-34.626575 7.195133-80.945239 193.369183-237.439369 330.97609-297.248907 539.634929-5.396349 17.987831 33.727183 0 37.32475-15.289656zM78.308808 919.084627c-7.644828 23.38418-16.189048 44.969577-25.632659 68.803453 0 3.597566-3.14787 10.343003 0 12.141786a52.16471 52.16471 0 0 0 59.809538-11.242394 166.837132 166.837132 0 0 0 20.686005-73.750107c4.047262-18.887223-34.626575 0-37.324749 15.289656l-7.195132 35.525966a54.862885 54.862885 0 0 0-3.147871 15.739352q-3.14787 9.893307 4.946654-2.698174t-6.745437-9.893307v12.141786q15.739352-37.774445 28.330834-76.448282c3.14787-9.893307-10.343003-8.993915-15.739352-6.745437a36.875054 36.875054 0 0 0-21.585397 22.035093zM189.83336 995.532908c-11.69209 30.129617 120.068772 11.69209 134.908732 12.141786a2731.00244 2731.00244 0 0 1 286.006513 14.839961c42.721099 5.396349 44.969577-4.946654 87.690676-14.390265 13.490873-3.14787 217.203059-14.839961 239.238152-10.343003 14.839961 3.14787 44.969577-28.330834 30.579313-31.478704a809.452394 809.452394 0 0 0-221.700017-8.094524c-44.969577 4.946654-66.105279 30.579313-119.16938 24.283572a1313.561358 1313.561358 0 0 0-189.771617-23.38418H369.71167c-65.655583 5.396349 86.791285 35.975662-94.436113 13.940569-12.591482 0-22.934485-18.887223-35.975662-17.987831-41.821707 2.698175-66.105279 2.698175-83.643414 44.969577-9.443611 23.38418 29.230225 5.846045 34.626575-7.195132zM396.243721 910.540407a291.402862 291.402862 0 0 0 96.234895 31.478704c22.934485 0 44.969577-11.69209 68.353758-12.141786a399.779544 399.779544 0 0 1 84.992501 11.69209c14.839961 3.14787 44.969577-28.330834 30.579313-31.478704a370.549318 370.549318 0 0 0-113.323335-11.69209 208.658839 208.658839 0 0 1-67.454366 7.195132 437.553989 437.553989 0 0 1-68.353758-26.53205c-13.940569-5.396349-44.969577 25.632659-30.579313 31.478704zM386.350414 72.307483c98.483375 3.597566 171.783786 76.448282 262.622332 104.32942 14.390265 4.496958 44.969577-26.981746 30.579313-31.478705C586.015337 116.827365 511.365839 43.526953 409.284898 39.929387c-13.940569 0-44.969577 31.9284-23.833876 32.827792z"  /></svg>