<?xml version="1.0" standalone="no"?><!DOCTYPE svg PUBLIC "-//W3C//DTD SVG 1.1//EN" "http://www.w3.org/Graphics/SVG/1.1/DTD/svg11.dtd"><svg class="icon" width="200px" height="200.00px" viewBox="0 0 1024 1024" version="1.1" xmlns="http://www.w3.org/2000/svg"><path d="M853.333333 443.733333c-17.066667 0-29.866667 12.8-29.866666 25.6v302.933334c0 64-51.2 115.2-115.2 115.2H315.733333c-64 0-115.2-51.2-115.2-115.2V469.333333c0-17.066667-12.8-25.6-25.6-25.6s-29.866667 12.8-29.866666 25.6v302.933334c0 93.866667 76.8 170.666667 170.666666 170.666666h392.533334c93.866667 0 170.666667-76.8 170.666666-170.666666V469.333333c0-12.8-12.8-25.6-25.6-25.6zM947.2 392.533333L644.266667 128c-76.8-68.266667-192-68.266667-268.8 0l-298.666667 264.533333c-12.8 8.533333-12.8 25.6-4.266667 38.4 4.266667 4.266667 12.8 8.533333 21.333334 8.533334s12.8-4.266667 17.066666-8.533334l302.933334-264.533333c55.466667-46.933333 140.8-46.933333 196.266666 0l302.933334 264.533333c12.8 8.533333 29.866667 8.533333 38.4-4.266666 8.533333-4.266667 8.533333-21.333333-4.266667-34.133334z" /><path d="M610.133333 780.8c17.066667 0 29.866667-12.8 29.866667-29.866667v-140.8c0-59.733333-46.933333-102.4-106.666667-102.4h-38.4c-59.733333 0-102.4 46.933333-102.4 102.4v140.8c0 17.066667 12.8 29.866667 25.6 29.866667s25.6-12.8 25.6-29.866667v-140.8c0-25.6 21.333333-46.933333 46.933334-46.933333h38.4c25.6 0 46.933333 21.333333 46.933333 46.933333v140.8c4.266667 17.066667 17.066667 29.866667 34.133333 29.866667z" /></svg>
