<?xml version="1.0" standalone="no"?><!DOCTYPE svg PUBLIC "-//W3C//DTD SVG 1.1//EN" "http://www.w3.org/Graphics/SVG/1.1/DTD/svg11.dtd"><svg class="icon" width="20px" height="20.00px" viewBox="0 0 1024 1024" version="1.1" xmlns="http://www.w3.org/2000/svg"><path d="M0 0h1024v1024H0z" fill="#1296db" fill-opacity="0" /><path d="M722.908 613.998c34.142 9.148 54.403 44.242 45.255 78.384l-72.21 269.493c-34.143-9.148-54.404-44.242-45.256-78.384l72.211-269.493z m123.003 32.595L961.876 762.56c18.558 18.558 18.743 48.53 0.557 67.316l-0.557 0.566-115.965 115.966c-24.994-24.994-24.994-65.517 0-90.51l59.396-59.398-59.396-59.396c-24.994-24.994-24.994-65.516 0-90.51z m-274.255 0c24.993 24.994 24.993 65.516 0 90.51L512.259 796.5l59.397 59.397c24.743 24.744 24.99 64.707 0.742 89.755l-0.742 0.755L455.69 830.44c-18.557-18.558-18.743-48.53-0.556-67.316l0.556-0.566 115.966-115.966zM512 513l6.231 0.048c68.977 1.056 133.708 19.615 189.948 51.431-26.08 11.18-46.98 33.656-55.157 62.97l-0.244 0.891-2.433 9.055a96.27 96.27 0 0 0-10.278-12.625l-0.829-0.849-0.383-0.385-1.122-1.105c-36.892-35.714-95.531-35.71-132.418 0.011l-1.111 1.094-93.952 93.951-0.92 0.936-1.443 1.511c-40.813 43.535-40.289 111.565 1.274 154.47l1.272 1.292L446.74 912H146.337l-0.486-0.004c-17.429-0.283-31.47-14.5-31.47-31.996 0-1.49 0.101-2.957 0.298-4.393l-0.037-0.045C133.045 672.278 303.922 513 512 513z m0.5-449C636.488 64 737 164.512 737 288.5S636.488 513 512.5 513 288 412.488 288 288.5 388.512 64 512.5 64z" fill="#1296db" /></svg>
