<svg t="1670669819497" class="icon" viewBox="0 0 1024 1024" version="1.1" xmlns="http://www.w3.org/2000/svg" p-id="6306" width="200" height="200"><path d="M512.022095 1024a511.99254 511.99254 0 1 1 511.99254-511.846256 512.504532 512.504532 0 0 1-511.99254 511.846256z m2.355166-940.164586a425.904651 425.904651 0 1 0 425.875395 425.977793A426.372759 426.372759 0 0 0 514.377261 83.835414z m53.510535 677.585555h-126.111077v-123.609627h126.111077v123.609627z m77.25236-326.358673a89.554809 89.554809 0 0 1-21.020951 32.767522 307.195524 307.195524 0 0 1-33.06009 26.91618 107.811 107.811 0 0 0-27.793881 26.623612 44.90906 44.90906 0 0 0-7.12401 26.769895v21.064836h-101.974286a880.846593 880.846593 0 0 1-0.307195-39.204 155.543334 155.543334 0 0 1 3.086584-27.501313 75.672497 75.672497 0 0 1 11.454004-26.623612 111.46809 111.46809 0 0 1 20.362675-20.479702 261.555046 261.555046 0 0 1 28.261988-20.187134 108.454648 108.454648 0 0 0 19.77754-18.285448 27.35503 27.35503 0 0 0 6.802187-17.55403 54.680803 54.680803 0 0 0-10.942012-27.501314 34.888634 34.888634 0 0 0-27.793881-9.069582 45.918417 45.918417 0 0 0-31.831307 11.84897 48.683176 48.683176 0 0 0-14.628359 29.549284l-1.228782 22.820239H358.409705c0-14.774642 0.599763-29.256717 1.843173-43.153657a139.071802 139.071802 0 0 1 12.682787-44.90906 117.553487 117.553487 0 0 1 31.202288-41.105687 129.080633 129.080633 0 0 1 47.600678-25.014492 228.963064 228.963064 0 0 1 57.47482-8.338165 183.688295 183.688295 0 0 1 70.464801 12.726672 115.56403 115.56403 0 0 1 48.522265 35.254344 105.031612 105.031612 0 0 1 21.64997 41.983388 174.618713 174.618713 0 0 1 4.00817 34.961776 133.001033 133.001033 0 0 1-8.718501 45.640478z" fill="#30C4E9" p-id="6307"></path></svg>
