<svg
     viewBox="0 0 32 32"
     xmlns="http://www.w3.org/2000/svg"><path
        d="M9 6l.679 1.321L11 8l-1.321.679L9 10l-.679-1.321L7 8l1.321-.679L9 6zm14 14l.679 1.321L25 22l-1.321.679L23 24l-.679-1.321L21 22l1.321-.679L23 20zM15.536 7.883l2.111 5.446 5.063 2.129L24 16l-1.29.542-5.063 2.129-2.11 5.446L15 25.5l-.536-1.383-2.111-5.446-5.063-2.129L6 16l1.29-.542 5.063-2.129 2.11-5.446L15 6.5l.536 1.383zm1.724 6.368L21.42 16l-4.16 1.749-.392.164-.153.396L15 22.733l-1.715-4.424-.153-.396-.392-.164L8.58 16l4.16-1.749.392-.164.153-.396L15 9.267l1.715 4.424.154.396.39.164z"
        fill-rule="evenodd" fill-opacity="1" fill="#fff" stroke="none"></path></svg>

