<svg t="1672666958461" viewBox="0 0 1024 1024" version="1.1" xmlns="http://www.w3.org/2000/svg" p-id="30182"><path d="M945.05141 451.097271l-96.583946-171.394632a41.608929 41.608929 0 0 0-36.124563-21.149289h-285.54825a41.576088 41.576088 0 0 0-36.124563 21.116449l-95.959976 169.949649v0.788172l-0.689651 0.459767a41.543247 41.543247 0 0 0 5.254482 47.158975l238.816202 272.838973a42.692665 42.692665 0 0 0 64.268882 0l237.798146-272.01796a41.641769 41.641769 0 0 0 4.893237-47.750104z" fill="#9FD4FF" p-id="30183"></path><path d="M968.7951 433.494756l-158.619673-281.476027a68.341105 68.341105 0 0 0-59.441326-34.712421H282.001475a68.308265 68.308265 0 0 0-59.408486 34.581059l-157.634457 279.144351v1.313621l-1.149417 0.722491a68.275424 68.275424 0 0 0 8.637054 77.503608l392.279914 447.977422a70.114493 70.114493 0 0 0 105.549405 0l390.572208-446.630961A68.373946 68.373946 0 0 0 968.7951 433.494756zM517.894872 921.833168l-1.839069-3.579616h-2.068952L118.225843 466.138225 279.144351 180.622815h474.414034l161.575318 286.730509z" fill="#333333" p-id="30184"></path><path d="M343.544594 426.69677a40.886437 40.886437 0 0 1 0-81.772874H689.650749a40.886437 40.886437 0 1 1 0 81.772874z" fill="#333333" p-id="30185"></path></svg>
