<svg t="1672550758859" class="icon" viewBox="0 0 1024 1024" version="1.1" xmlns="http://www.w3.org/2000/svg" p-id="3189" width="24" height="24"><path d="M1001.661867 796.544c48.896 84.906667 7.68 157.013333-87.552 157.013333H110.781867c-97.834667 0-139.050667-69.504-90.112-157.013333l401.664-666.88c48.896-87.552 128.725333-87.552 177.664 0l401.664 666.88zM479.165867 296.533333v341.333334a32 32 0 1 0 64 0v-341.333334a32 32 0 1 0-64 0z m0 469.333334v42.666666a32 32 0 1 0 64 0v-42.666666a32 32 0 1 0-64 0z" fill="#FAAD14" p-id="3190"></path></svg>
