<?xml version="1.0" standalone="no"?><!DOCTYPE svg PUBLIC "-//W3C//DTD SVG 1.1//EN" "http://www.w3.org/Graphics/SVG/1.1/DTD/svg11.dtd"><svg class="icon" width="20px" height="20.00px" viewBox="0 0 1024 1024" version="1.1" xmlns="http://www.w3.org/2000/svg"><path d="M631.466667 665.6h-153.6v51.2h153.6v-51.2zM785.066667 512H477.866667v51.2h307.2v-51.2zM785.066667 358.4H477.866667v51.2h307.2v-51.2z" fill="#335056" /><path d="M904.533333 204.8H682.666667V85.333333c0-18.773333-15.36-34.133333-34.133334-34.133333H102.4c-18.773333 0-34.133333 15.36-34.133333 34.133333v699.733334c0 18.773333 15.36 34.133333 34.133333 34.133333h221.866667v119.466667c0 18.773333 15.36 34.133333 34.133333 34.133333h546.133333c18.773333 0 34.133333-15.36 34.133334-34.133333V238.933333c0-18.773333-15.36-34.133333-34.133334-34.133333zM324.266667 409.6v102.4h-102.4v51.2h102.4v204.8H119.466667V102.4h512v102.4H221.866667v51.2h102.4v102.4h-102.4v51.2h102.4z m563.2 512H375.466667V256h512v665.6z" fill="#335056" /><path d="M221.866667 563.2v-51.2h102.4v-102.4h-102.4v-51.2h102.4v-102.4h-102.4v-51.2h409.6V102.4H119.466667v665.6h204.8V563.2z" fill="#78BDCC" /></svg>
