<svg t="1599401034544" class="icon" viewBox="0 0 1024 1024" version="1.1" xmlns="http://www.w3.org/2000/svg" p-id="78985" width="20" height="20"><path d="M708.682927 459.620596H308.379404a27.750678 27.750678 0 1 1 0-55.501355h400.303523a27.750678 27.750678 0 1 1 0 55.501355zM435.338753 680.932249H308.379404a27.750678 27.750678 0 1 1 0-55.501355H435.338753a27.750678 27.750678 0 0 1 0 55.501355z" p-id="78986"></path><path d="M482.168022 914.384824H180.726287a69.376694 69.376694 0 0 1-71.457994-67.295393V222.00542a69.376694 69.376694 0 0 1 71.457994-67.295393 27.750678 27.750678 0 0 0 0-55.501355A125.224932 125.224932 0 0 0 53.766938 222.00542v624.390244A125.224932 125.224932 0 0 0 180.726287 971.273713h334.395664a119.327913 119.327913 0 0 0-32.953929-56.888889zM803.03523 154.710027a69.376694 69.376694 0 0 1 71.804878 67.295393v274.731707a329.192412 329.192412 0 0 1 55.501355 32.607046V222.00542a125.224932 125.224932 0 0 0-127.306233-122.796748 27.750678 27.750678 0 0 0 0 55.501355zM663.241192 1024a34.688347 34.688347 0 0 1-14.222222-3.121951 228.596206 228.596206 0 0 1-52.03252-30.872629 34.688347 34.688347 0 0 1-13.181572-34.688347 81.170732 81.170732 0 0 0-52.03252-91.577236 34.688347 34.688347 0 0 1-23.241193-28.791328 242.818428 242.818428 0 0 1-2.081301-31.219512 233.799458 233.799458 0 0 1 2.081301-30.872628 34.688347 34.688347 0 0 1 23.588076-29.138212 80.130081 80.130081 0 0 0 42.319783-34.688347 84.292683 84.292683 0 0 0 9.365854-56.195122 34.688347 34.688347 0 0 1 13.181572-34.688347 229.289973 229.289973 0 0 1 57.929539-34.688346 27.750678 27.750678 0 0 1 29.485095 5.897019 78.395664 78.395664 0 0 0 54.113821 21.853658 77.00813 77.00813 0 0 0 50.99187-19.078591 34.688347 34.688347 0 0 1 37.463415-6.243902 230.330623 230.330623 0 0 1 52.726287 30.872629 34.688347 34.688347 0 0 1 13.181572 34.688346 83.598916 83.598916 0 0 0 9.365853 55.848239 80.476965 80.476965 0 0 0 42.319784 34.688347 34.688347 34.688347 0 0 1 23.588076 29.138211 227.208672 227.208672 0 0 1 2.0813 30.872629 236.921409 236.921409 0 0 1-2.0813 30.525745 34.688347 34.688347 0 0 1-23.588076 29.485095 80.130081 80.130081 0 0 0-42.319784 34.688347 83.945799 83.945799 0 0 0-9.365853 56.195122 34.688347 34.688347 0 0 1-13.181572 34.688347 230.330623 230.330623 0 0 1-52.379404 30.872628 34.688347 34.688347 0 0 1-37.810298-6.243902 77.00813 77.00813 0 0 0-50.644986-19.078591 78.742547 78.742547 0 0 0-51.685637 19.425475 34.688347 34.688347 0 0 1-23.93496 11.447154zM650.406504 971.273713z m173.441734 0z m-18.384823 0z m-134.93767 0z m167.197832-4.856369z m-197.723577-11.794038a173.441734 173.441734 0 0 0 20.466125 12.140922 134.243902 134.243902 0 0 1 77.355013-24.97561 132.509485 132.509485 0 0 1 77.701897 24.97561 173.441734 173.441734 0 0 0 20.466125-12.140922 138.753388 138.753388 0 0 1 17.344173-80.823848 135.631436 135.631436 0 0 1 60.357724-56.195122v-12.487805-12.487805A135.97832 135.97832 0 0 1 851.598916 735.04607a138.753388 138.753388 0 0 1-17.344173-81.170731 182.113821 182.113821 0 0 0-20.466125-12.140922 132.162602 132.162602 0 0 1-77.355014 24.97561 133.897019 133.897019 0 0 1-77.701897-24.97561 179.338753 179.338753 0 0 0-20.466124 12.140922 138.753388 138.753388 0 0 1-17.344174 80.823848 135.631436 135.631436 0 0 1-60.357723 56.195122v24.97561a136.672087 136.672087 0 0 1 79.436314 137.365853z m-89.495935-141.875339z m374.287263 0z m0-15.609756z m-373.940379 0z m361.452574-15.609756z m-74.926829-138.753387z m-199.457995 0z m187.663957-7.631437z" p-id="78987"></path><path d="M660.466125 810.319783a59.663957 59.663957 0 1 0 29.831978-51.685637 59.663957 59.663957 0 0 0-29.831978 51.685637z m0 0" fill="#00BDFF" p-id="78988"></path><path d="M737.821138 753.084011a50.644986 50.644986 0 1 1-49.951219 50.644986 50.298103 50.298103 0 0 1 49.951219-50.644986m0-30.178862a80.476965 80.476965 0 1 0 56.888889 23.588076 80.476965 80.476965 0 0 0-56.888889-23.588076z m0 0" p-id="78989"></path><path d="M379.837398 44.747967h225.474255v158.178862H379.837398z" fill="#FFCE00" p-id="78990"></path><path d="M627.165312 249.756098h-242.818429A55.154472 55.154472 0 0 1 331.273713 194.601626v-138.753388A55.154472 55.154472 0 0 1 385.734417 0h242.818429a55.154472 55.154472 0 0 1 55.154471 55.154472v138.753387a55.154472 55.154472 0 0 1-56.542005 55.848239z m0-55.501355z m0-138.753388h-242.818429v138.753388h242.818429z" p-id="78991"></path></svg>
