<svg t="1588601864954" class="icon" viewBox="0 0 1024 1024" version="1.1"
     xmlns="http://www.w3.org/2000/svg" p-id="25957" width="20" height="20">
    <path
            d="M510.677 83.529c60.891 0 119.75 13.191 174.046 38.055l-40.087 70.028 202.97-1.016-101.99-175.063-35.52 61.909c-61.908-29.433-129.903-44.657-199.419-44.657-257.266 0-466.833 209.566-466.833 466.833 0 93.368 27.4 183.69 79.668 261.326l42.116-28.415c-46.684-69.012-71.039-149.183-71.039-232.91 0-229.355 186.729-416.09 416.088-416.09z m425.225 223.774l-46.175 20.802c24.356 53.788 37.039 111.637 37.039 171.512 0 229.358-186.73 416.089-416.089 416.089-46.684 0-92.351-7.608-135.99-22.832l34-65.968-202.468 10.148 110.116 170.5 35.52-69.012c50.738 18.777 104.526 27.908 159.33 27.908 257.265 0 466.832-209.567 466.832-466.833-0.507-66.98-14.715-131.93-42.115-192.314z m0 0"
            p-id="25958" ></path>
<path
d="M317.096 1023.06L192.387 829.965 421.78 818.47l-36.039 69.924c40.06 12.971 82.045 19.543 124.936 19.543 225.147 0 408.317-183.17 408.317-408.317 0-58.417-12.23-115.043-36.348-168.305l-3.212-7.094 60.343-27.186 3.203 7.059c27.889 61.462 42.292 127.226 42.81 195.467 0 261.757-212.908 474.664-474.606 474.664-54.211 0-106.5-8.76-155.546-26.05l-38.54 74.885zM220.05 844.143l95.524 147.906 32.521-63.187 6.458 2.39c49.176 18.198 101.874 27.425 156.632 27.425 253.126 0 459.06-205.933 459.06-459.06-0.48-63.377-13.353-124.59-38.275-182.018l-32.013 14.422c22.95 53.205 34.582 109.55 34.582 167.595 0 233.719-190.143 423.862-423.862 423.862-47.682 0-94.297-7.828-138.55-23.266l-8.448-2.948 31.914-61.92-175.543 8.8z m-98.64-72.405l-4.345-6.455C64.08 686.583 36.071 594.717 36.071 499.617c0-261.698 212.907-474.605 474.605-474.605 68.724 0 134.705 14.25 196.232 42.368L745.564 0.005 861.09 198.301l-229.898 1.151 42.514-74.27c-51.835-22.486-106.64-33.88-163.03-33.88-225.147 0-408.317 183.17-408.317 408.316 0 82.11 24.104 161.145 69.705 228.556l4.36 6.445-55.014 37.12zM510.677 40.557c-253.126 0-459.06 205.934-459.06 459.06 0 89.396 25.578 175.828 74.053 250.495l29.221-19.715c-44.563-68.554-68.074-148.169-68.074-230.78 0-233.717 190.143-423.861 423.861-423.861 61.471 0 121.117 13.04 177.283 38.76l7.738 3.543-37.618 65.714 176.044-0.882-88.458-151.83-32.41 56.489-6.498-3.09C645.482 55.329 579.51 40.558 510.677 40.558z"
p-id="25959"></path>
<path
d="M320.113 320.409h383.973v63.55H320.113z m0.184 127.952H704.27v63.55H320.297z m-0.184 127.803h383.973v63.55H320.113z"
p-id="25960"></path>
        </svg>
