<svg t="1603002270099" class="icon" viewBox="0 0 1365 1024" version="1.1" xmlns="http://www.w3.org/2000/svg" p-id="8890" width="48" height="48"><path d="M982.390548 643.073053m-380.926947 0a380.926947 380.926947 0 1 0 761.853894 0 380.926947 380.926947 0 1 0-761.853894 0Z"  p-id="8891"></path><path d="M1323.260019 242.097319h-120.092232v120.29272a40.097573 40.097573 0 0 1-40.037427 40.097574 39.977281 39.977281 0 0 1-40.037427-40.097574v-120.29272h-120.092233a40.017378 40.017378 0 0 1-35.18562-19.848299 40.15772 40.15772 0 0 1 0-40.4785 40.017378 40.017378 0 0 1 35.205669-19.848299h120.092232V41.609452a40.057476 40.057476 0 1 1 80.074854 0v120.29272h120.092233A39.997329 39.997329 0 0 1 1363.317495 201.999746 40.097573 40.097573 0 0 1 1323.260019 242.097319zM197.139719 422.536399a35.285865 35.285865 0 0 1-26.003276-11.748589A42.002208 42.002208 0 0 1 160.390293 382.418777c0-10.625857 3.869416-20.850738 10.766199-28.348984 6.876734-7.518295 16.239517-11.72854 25.983227-11.72854h147.037802c9.74371 0 19.106494 4.210245 26.003276 11.72854s10.766198 17.723127 10.74615 28.348984c0 10.625857-3.849367 20.850738-10.74615 28.369033a35.285865 35.285865 0 0 1-26.003276 11.748589H197.139719zM380.926947 602.97548c0-132.702919 107.922619-240.58544 240.58544-240.585441s240.58544 107.882521 240.585441 240.585441-107.922619 240.58544-240.585441 240.58544-240.58544-107.862472-240.58544-240.58544z m400.975734 0c0-88.415149-71.935047-160.390293-160.390294-160.390294s-160.390293 71.935047-160.390293 160.390294c0 88.495344 71.935047 160.390293 160.390293 160.390293s160.390293-71.894949 160.390294-160.390293z m39.856988-356.367184c2.846928-7.538344 4.330538-15.517761 4.410733-23.557324 0-18.745616-7.59849-36.709328-21.131421-49.961577a72.977584 72.977584 0 0 0-51.024163-20.710396H480.810002c-39.856988 0-72.175632 31.657034-72.175632 70.671973 0 8.320246 1.744244 16.159322 4.410733 23.557324H120.29272c-26.564642 0-48.117088 21.091324-48.117088 47.114649v612.490433c0 12.510443 5.072343 24.499617 14.094297 33.321084 9.021954 8.821466 21.251714 13.793565 34.022791 13.793565h962.341761c12.751028 0 25.000837-4.95205 34.022791-13.793565 9.021954-8.821466 14.074248-20.810641 14.074248-33.301035V458.624215H1202.927201v447.609212C1202.927201 971.271691 1149.056111 1024 1082.634481 1024H120.29272c-66.461728 0-120.29272-52.728309-120.29272-117.766573v-612.490433C0 228.664632 53.830992 175.936323 120.29272 175.936323h239.10183c11.127077-53.730748 59.64514-94.229297 117.846768-94.229297h280.342185c58.181579 0 106.719692 40.498549 117.866816 94.229297H910.214916v70.671973h-88.455247z" fill="#495060" p-id="8892"></path></svg>
