<svg t="1600873269661" class="icon" viewBox="0 0 1024 1024" version="1.1" xmlns="http://www.w3.org/2000/svg" p-id="9633" width="64" height="64"><path d="M294.8096 102.4h434.3808C863.744 102.4 972.8 209.8176 972.8 342.3744v250.1632c0 132.5568-109.056 239.9744-243.6096 239.9744H356.3008c-32.6144 0-64.5632 9.216-92.0576 26.624l-76.8512 48.64a89.1904 89.1904 0 0 1-122.1632-26.2144A86.1184 86.1184 0 0 1 51.2 834.56V342.3744C51.2 209.8176 160.256 102.4 294.8096 102.4z m0 72.192c-94.0544 0-170.2912 75.1104-170.2912 167.7824v492.1344c0 2.8672 0.8192 5.632 2.4064 8.0384 4.5056 6.912 13.824 8.9088 20.8384 4.5056l76.8512-48.64a246.3744 246.3744 0 0 1 131.6864-38.0928h372.8896c94.0544 0 170.2912-75.1104 170.2912-167.7824V342.3744c0-92.672-76.288-167.7824-170.2912-167.7824H294.8096z m11.6224 340.1216a51.8144 51.8144 0 1 1 0.1024-103.6288 51.8144 51.8144 0 0 1-0.1024 103.6288z m206.9504 0a51.8144 51.8144 0 1 1 0.1024-103.6288 51.8144 51.8144 0 0 1-0.1024 103.6288z m207.0016 0a51.8144 51.8144 0 1 1 0.1024-103.6288 51.8144 51.8144 0 0 1-0.1024 103.6288z"  p-id="9634"></path></svg>
