<svg t="1600872298803" class="icon" viewBox="0 0 1024 1024" version="1.1" xmlns="http://www.w3.org/2000/svg" p-id="6051" width="18" height="18"><path d="M733.855 791.945c0 26.574-21.63 48.203-48.202 48.203H338.347c-26.573 0-48.202-21.63-48.202-48.203V280.257h443.71v511.688zM386.55 193.74c0-5.562 4.326-9.888 9.888-9.888H628.18c5.562 0 9.888 4.326 9.888 9.888v29.045H386.55V193.74z m491.913 29.045H695.54V193.74c0-37.08-30.28-67.36-67.36-67.36H396.438c-37.08 0-67.36 30.28-67.36 67.36v29.045h-183.54c-16.068 0-29.046 12.978-29.046 29.045s12.978 29.045 29.045 29.045h86.518v511.07c0 58.709 47.584 106.293 106.292 106.293h347.306c58.708 0 106.292-47.584 106.292-106.293V280.257h86.518c16.067 0 29.045-12.977 29.045-29.045s-12.978-28.427-29.045-28.427zM512 753.013c16.068 0 29.045-12.978 29.045-29.046v-308.99c0-16.068-12.977-29.045-29.045-29.045s-29.045 12.977-29.045 29.045v308.99c0 16.068 12.977 29.046 29.045 29.046m-135.338 0c16.068 0 29.045-12.978 29.045-29.046v-308.99c0-16.068-12.977-29.045-29.045-29.045s-29.045 12.977-29.045 29.045v308.99c0.618 16.068 13.596 29.046 29.045 29.046m270.676 0c16.067 0 29.045-12.978 29.045-29.046v-308.99c0-16.068-12.978-29.045-29.045-29.045s-29.045 12.977-29.045 29.045v308.99c0 16.068 12.977 29.046 29.045 29.046" p-id="6052"></path></svg>
