<svg t="1588585290337" class="icon" viewBox="0 0 1024 1024" version="1.1"
     xmlns="http://www.w3.org/2000/svg" p-id="18962" width="20" height="20">
    <path
            d="M951.990857 512a30.317714 30.317714 0 0 1-9.691428 22.016l-124.964572 125.842286c-6.473143 6.473143-14.08 9.691429-22.893714 9.691428s-16.128-3.218286-22.016-9.691428-8.813714-13.787429-8.813714-22.016v-63.378286h-189.184v189.184h63.378285c8.228571 0 15.542857 2.925714 22.016 8.813714s9.691429 13.202286 9.691429 22.016-3.218286 16.128-9.691429 22.016l-125.842285 125.842286c-5.851429 6.473143-13.202286 9.691429-22.016 9.691429s-16.128-3.218286-22.016-9.691429l-125.842286-125.842286c-6.473143-5.851429-9.691429-13.202286-9.691429-22.016s3.218286-16.128 9.691429-22.016 13.787429-8.813714 22.016-8.813714h63.341714v-189.184H260.278857v63.378286c0 8.228571-2.925714 15.542857-8.813714 22.016s-13.202286 9.691429-22.016 9.691428-16.128-3.218286-22.016-9.691428l-125.842286-125.842286c-6.473143-6.473143-9.691429-13.787429-9.691428-22.016s3.218286-15.542857 9.691428-22.016l125.842286-125.842286c5.851429-6.473143 13.202286-9.691429 22.016-9.691428s16.128 3.218286 22.016 9.691428 8.813714 13.787429 8.813714 22.016v63.341715h189.184V260.315429h-63.341714c-8.228571 0-15.542857-2.925714-22.016-8.813715s-9.691429-13.202286-9.691429-22.016 3.218286-16.420571 9.691429-22.893714l125.842286-124.964571c6.473143-6.473143 13.787429-9.691429 22.016-9.691429s15.542857 3.218286 22.016 9.691429l125.842285 124.964571c6.473143 6.473143 9.691429 14.08 9.691429 22.893714s-3.218286 16.128-9.691429 22.016-13.787429 8.813714-22.016 8.813715h-63.341714v189.184h189.184v-63.341715c0-8.228571 2.925714-15.542857 8.813714-22.016s13.202286-9.691429 22.016-9.691428 16.420571 3.218286 22.893715 9.691428l124.964571 125.842286c6.473143 5.851429 9.691429 13.202286 9.691429 22.016z"
            p-id="18963" fill="#707070"></path>
</svg>
