<svg t="1605333463227" class="icon" viewBox="0 0 1024 1024" version="1.1" xmlns="http://www.w3.org/2000/svg" p-id="4866" width="20" height="20"><path d="M406.4 581.547l-176 176V684.16a36.907 36.907 0 0 0-36.907-36.907h-11.306a36.907 36.907 0 0 0-36.907 36.907v181.12a36.907 36.907 0 0 0 11.093 26.24 36.48 36.48 0 0 0 26.24 11.093h181.12a36.907 36.907 0 0 0 36.907-36.906v-12.374a36.907 36.907 0 0 0-36.907-36.906h-73.386L466.56 640.64a42.667 42.667 0 0 0-59.947-60.16z m496.427-436.054a36.48 36.48 0 0 0-26.24-11.093H695.68a36.907 36.907 0 0 0-36.907 36.267v11.306a36.907 36.907 0 0 0 36.907 36.907H768L591.787 394.667a42.667 42.667 0 0 0 59.946 60.16l176-176v73.386a36.907 36.907 0 0 0 36.907 36.907h11.307a36.907 36.907 0 0 0 36.906-36.907V170.667a36.907 36.907 0 0 0-10.026-25.174z m-32 544.214a42.667 42.667 0 0 0-42.667 42.666v85.334h-85.333a42.667 42.667 0 1 0 0 85.333h128a42.667 42.667 0 0 0 42.666-42.667v-128a42.667 42.667 0 0 0-42.666-42.666zM188.373 347.733a42.667 42.667 0 0 0 42.667-42.666v-85.334h85.333a42.667 42.667 0 1 0 0-85.333h-128a42.667 42.667 0 0 0-42.666 42.667v128a42.667 42.667 0 0 0 42.666 42.666z" fill="#515151" p-id="4867"></path></svg>
