<svg t="1608973287213" class="icon" viewBox="0 0 1024 1024" version="1.1" xmlns="http://www.w3.org/2000/svg" p-id="7635" width="22" height="22"><path d="M512 987.428571c263.314286 0 475.428571-212.114286 475.428571-475.428571S775.314286 36.571429 512 36.571429 36.571429 248.685714 36.571429 512s212.114286 475.428571 475.428571 475.428571z m0 36.571429C228.571429 1024 0 795.428571 0 512S228.571429 0 512 0s512 228.571429 512 512-228.571429 512-512 512z" fill="#B3B3B3" p-id="7636"></path><path d="M301.714286 493.714286h420.571428c14.628571 0 27.428571 12.8 27.428572 27.428571s-12.8 27.428571-27.428572 27.428572h-420.571428c-14.628571 0-27.428571-12.8-27.428572-27.428572s12.8-27.428571 27.428572-27.428571z" fill="#7F7F7F" p-id="7637"></path><path d="M539.428571 310.857143v420.571428c0 14.628571-12.8 27.428571-27.428571 27.428572s-27.428571-12.8-27.428571-27.428572V310.857143c0-14.628571 12.8-27.428571 27.428571-27.428572s27.428571 12.8 27.428571 27.428572z" fill="#7F7F7F" p-id="7638"></path></svg>
