<?xml version="1.0" standalone="no"?><!DOCTYPE svg PUBLIC "-//W3C//DTD SVG 1.1//EN" "http://www.w3.org/Graphics/SVG/1.1/DTD/svg11.dtd"><svg t="1598345428333" viewBox="0 0 1024 1024" version="1.1" xmlns="http://www.w3.org/2000/svg" p-id="41924" xmlns:xlink="http://www.w3.org/1999/xlink" width="30" height="30"><defs><style type="text/css"></style></defs><path d="M512 512m-512 0a512 512 0 1 0 1024 0 512 512 0 1 0-1024 0Z" fill="transparent" p-id="41925" data-spm-anchor-id="a313x.7781069.0.i29" class="selected"></path><path d="M403.456 680.618667l-48.014222-48.014223a12.060444 12.060444 0 0 0-16.952889 0L242.460444 728.177778a11.946667 11.946667 0 0 0 4.664889 19.911111L318.577778 772.437333a12.288 12.288 0 0 0 3.754666 0.568889 12.060444 12.060444 0 0 0 8.533334-3.527111l72.021333-72.021333a12.060444 12.060444 0 0 0 0-16.952889" fill="#FABD6B" p-id="41926"></path><path d="M322.901333 784.497778a23.438222 23.438222 0 0 1-7.395555-1.137778l-72.021334-24.007111a23.324444 23.324444 0 0 1-9.102222-38.798222l95.573334-96.028445a23.438222 23.438222 0 0 1 33.109333 0l48.014222 48.014222a23.438222 23.438222 0 0 1 0 32.995556l-72.021333 72.021333a22.755556 22.755556 0 0 1-16.156445 6.940445z m24.462223-143.928889L250.311111 736.597333l72.248889 25.031111 72.704-72.135111v-0.910222z" fill="#464C63" p-id="41927"></path><path d="M781.539556 386.844444l-131.982223-131.982222a11.946667 11.946667 0 0 0-16.952889 0L296.504889 590.506667a11.946667 11.946667 0 0 0 0 16.952889L428.487111 739.555556a11.946667 11.946667 0 0 0 8.533333 3.527111 11.377778 11.377778 0 0 0 8.533334-3.527111l335.985778-336.099556a11.946667 11.946667 0 0 0 0-16.952889" fill="#6B7082" p-id="41928" data-spm-anchor-id="a313x.7781069.0.i30" class=""></path><path d="M682.666667 287.971556l-161.564445 161.564444a12.060444 12.060444 0 0 0 0 16.952889l48.014222 48.014222a12.060444 12.060444 0 0 0 16.952889 0L747.975111 352.711111" fill="#E1E1E6" p-id="41929"></path><path d="M577.991111 529.294222a23.438222 23.438222 0 0 1-16.497778-6.712889l-48.014222-48.014222a23.438222 23.438222 0 0 1 0-33.109333l161.564445-161.564445a11.377778 11.377778 0 0 1 16.042666 15.928889l-161.564444 161.564445 48.014222 48.924444L739.555556 344.974222a11.377778 11.377778 0 0 1 16.042666 16.042667l-161.564444 161.564444a23.324444 23.324444 0 0 1-16.042667 6.712889z" fill="#464C63" p-id="41930"></path><path d="M437.020444 754.460444a22.755556 22.755556 0 0 1-16.497777-6.826666L288.426667 615.537778a23.324444 23.324444 0 0 1 0-32.995556l336.099555-336.099555a22.755556 22.755556 0 0 1 16.497778-6.826667 22.755556 22.755556 0 0 1 16.497778 6.826667l131.982222 131.982222a23.324444 23.324444 0 0 1 0 33.109333L453.518222 747.633778a22.755556 22.755556 0 0 1-16.497778 6.826666z m204.8-491.975111L304.469333 598.584889l132.096 132.892444L773.688889 395.377778v-0.910222z" fill="#464C63" p-id="41931"></path></svg>
