<?xml version="1.0" standalone="no"?><!DOCTYPE svg PUBLIC "-//W3C//DTD SVG 1.1//EN" "http://www.w3.org/Graphics/SVG/1.1/DTD/svg11.dtd"><svg t="1599403088392" class="icon" viewBox="0 0 1024 1024" version="1.1" xmlns="http://www.w3.org/2000/svg" p-id="95325" xmlns:xlink="http://www.w3.org/1999/xlink" width="64" height="64"><defs><style type="text/css"></style></defs><path d="M163.9 318.4c-16.1 0-24.9-8.9-24.9-25s8.9-25 24.9-25h488.2c16.1 0 24.9 8.9 24.9 25s-8.8 25-24.9 25H163.9z m0-144.6c-16.1 0-24.9-8.9-24.9-25s8.9-25 24.9-25h488.2c16.1 0 24.9 8.9 24.9 25s-8.8 25-24.9 25H163.9z m0 585.2c-16.1 0-24.9-8.9-24.9-25s8.9-25 24.9-25h488.2c16.1 0 24.9 8.9 24.9 25s-8.8 25-24.9 25H163.9z m0 144.6c-16.1 0-24.9-8.9-24.9-25 0-13.8 11.2-25 25-25h488c13.8 0 25 11.2 25 25 0 16.1-8.8 25-24.9 25H163.9zM494.3 411.5l-81.8 83c-9 9.2-9 25.8 0 34.9l81.8 83c12.4 12.6 31.5 2.1 31.5-17.4V429c0-19.6-19.1-30.2-31.5-17.5zM994.8 541H591.2c-16.1 0-29.2-13-29.2-29s13.1-29 29.2-29h403.6c16.1 0 29.2 13 29.2 29s-13.1 29-29.2 29z" p-id="95326" data-spm-anchor-id="a313x.7781069.0.i78" class="selected" fill="#1296db"></path><path d="M880.7 653c-12.3 0-22.3 10-22.3 22.3v234.9c0 35.1-28.6 63.6-63.7 63.6H107c-35.1 0-63.7-28.5-63.7-63.6V113.8c0-35.1 28.6-63.6 63.7-63.6h687.7c35.1 0 63.7 28.5 63.7 63.6v234.9c0 12.3 10 22.3 22.3 22.3s22.3-10 22.3-22.3V90.9c0-49-39.9-88.9-89-88.9H92C42.9 2 3 41.9 3 90.9v842.3c0 49 39.9 88.9 89 88.9h722c49.1 0 89-39.9 89-88.9V675.3c0-12.3-10-22.3-22.3-22.3z" p-id="95327"></path></svg>