<svg t="1596371839770" class="icon" viewBox="0 0 1024 1024" version="1.1" xmlns="http://www.w3.org/2000/svg" p-id="11842" width="16" height="16"><path d="M135.73625 873.696875c-31.7840625 0-57.7340625-25.96125-57.7340625-57.7425V178.120625c0-31.9715625 25.94625-57.7565625 57.7340625-57.7565625h70.4690625c10.6575 0 19.24875-8.59125 19.24875-19.26A19.2140625 19.2140625 0 0 0 206.20625 81.85625h-70.4690625C82.6596875 81.85625 39.4934375 125.0103125 39.4934375 178.101875v637.65c0 53.09625 43.16625 96.2915625 96.24375 96.2915625H415.7l-38.32875-38.385H135.73625v0.0375zM797.15 178.1196875c0-53.1028125-43.1465625-96.2428125-96.2428125-96.2428125h-69.7715625a19.2121875 19.2121875 0 0 0-19.24875 19.24875c0 10.66875 8.58 19.26 19.24875 19.26h69.7715625c31.8 0 57.7603125 25.9575 57.7603125 57.7528125v149.581875l38.50125 38.50875v-188.109375h-0.01875z m-189.778125 16.32375H229.2565625c-23.88 0-43.1278125 19.2375-43.1278125 43.14375 0 23.8828125 19.2478125 43.1278125 43.1278125 43.1278125H607.371875c23.76375 0 43.18875-19.24875 43.18875-43.12875-0.00375-23.9015625-19.2525-43.1428125-43.18875-43.1428125z m-73.8740625-93.6740625C533.4978125 62.795 502.7075 32 464.73875 32h-92.8190625c-37.9715625 0-68.7253125 30.795-68.7253125 68.7703125v97.9528125h230.3034375V100.7703125zM418.3221875 161.796875c-25.10625 0-45.54375-20.4515625-45.54375-45.54375 0-25.0940625 20.4375-45.564375 45.54375-45.564375 25.0940625 0 45.5315625 20.4703125 45.5315625 45.5653125 0 25.09125-20.44125 45.54375-45.5315625 45.54375z m212.4796875 222.946875c0 11.7140625-21.405 21.1790625-47.8603125 21.1790625H235.1890625c-26.42625 0-47.86875-9.46875-47.86875-21.1790625 0-11.6925 21.43125-21.16125 47.86875-21.16125h347.7525c26.45625 0.0225 47.8603125 9.46875 47.8603125 21.16125z m0 177.5934375c0 11.715-21.405 21.165-47.8603125 21.165H235.1890625c-26.42625 0-47.86875-9.45-47.86875-21.165 0-11.7103125 21.43125-21.1565625 47.86875-21.1565625h347.7525c26.45625 0 47.8603125 9.44625 47.8603125 21.1565625zM590.8353125 739.8875c0 11.71875 18.5578125 21.20625-7.89375 21.20625H235.1890625c-26.42625 0-47.86875-9.4875-47.86875-21.20625 0-11.67 21.43125-21.16125 47.86875-21.16125h347.7525c26.45625 0.00375 7.89375 9.49125 7.89375 21.16125z m246.8109375-120.444375a1755.594375 1755.594375 0 0 0 34.1203125-9.95625c9.4875-2.86875 19.2-5.6925 29.16-8.56125 9.96-2.84625 18.2278125-5.445 24.8503125-7.8225l-9.95625 37.69875c-2.8453125 10.44375-5.4440625 18.2465625-7.8028125 23.4703125-4.75125 12.78-10.31625 24.63-16.7175 35.52375-6.375 10.89-12.43875 20.40375-18.13125 28.4503125a305.3109375 305.3109375 0 0 1-20.61 26.32125l-87.4378125 26.295 71.7975 12.8025A1055.83125 1055.83125 0 0 1 806.375 808.529375c-9.50625 7.06875-20.26875 14.56125-32.3625 22.41375-12.09375 7.79625-24.7378125 15.0675-38.00625 21.69-13.275 6.62625-28.096875 10.02375-44.4815625 10.31625-16.33125 0.22125-31.8478125-0.82875-46.5590625-3.2025-17.07375-2.38125-34.1025-6.40125-51.1715625-12.10125 5.2003125-8.04375 10.8890625-17.06625 17.0690625-27.01875a1771.048125 1771.048125 0 0 1 18.85125-30.2090625c7.335-11.625 15.02625-24.5625 23.08875-38.745a13462.498125 13462.498125 0 0 0 66.1303125-113.0465625 35751.05625 35751.05625 0 0 0 57.5690625-100.220625c19.45125-34.60875 38.19-67.3040625 56.18625-98.1253125-22.29 25.58625-45.7425 54.28125-70.3725 86.0240625-21.3375 27.0328125-45.0328125 59.1515625-71.128125 96.3215625-26.07 37.2065625-52.60875 77.8378125-79.6125 121.940625-5.6925 8.97375-12.09375 19.46625-19.2065625 31.27125a7875.10875 7875.10875 0 0 0-22.4025 37.725c-7.80375 13.2375-15.85125 26.8903125-24.14625 40.846875-8.2875 13.9621875-16.47375 27.6525-24.5325 40.85625A6661.8853125 6661.8853125 0 0 0 462.97625 992c0.46875-9.95625 2.3775-22.75875 5.7-38.4075 2.8125-13.2703125 7.5675-29.8753125 14.20125-49.7653125 6.6375-19.8975 16.12875-43.3640625 28.4625-70.3490625 8.0353125-17.0925 14.2003125-30.3375 18.4565625-39.83625 4.30125-9.4640625 7.62375-16.7953125 9.96-22.0453125 2.38125-5.6925 4.25625-9.4875 5.68875-11.3775-2.3775-2.82-2.85375-8.535-1.4325-17.07 0.97875-7.57875 3.7125-18.58125 8.19375-33.0515625 4.5-14.44875 12.20625-34.69875 23.0925-60.7725 10.89-26.5378125 25.2478125-55.1240625 43.0125-85.6865625s37.8065625-60.8765625 60.0778125-90.9740625c22.2703125-30.1040625 46.4390625-59.2453125 72.5090625-87.466875 26.0953125-28.1925 52.7428125-53.175 79.9678125-74.9915625 27.3-21.8025 54.5465625-39.68625 81.796875-53.7 27.20625-13.9725 53.65875-21.92625 79.26-23.80875 0.44625 16.59375-1.1775 38.53125-4.95 65.77125-3.78 27.2390625-8.5575 56.3915625-14.25 87.4528125-5.64375 31.05-12.0675 62.5565625-19.1625 94.528125-7.12875 31.99875-13.99875 61.00875-20.6475 87.0778125l-95.266875 51.915z m0 0"  p-id="11843"></path></svg>
