<svg t="1588566551449" class="icon" viewBox="0 0 1024 1024" version="1.1"
     xmlns="http://www.w3.org/2000/svg" p-id="18007" width="20" height="20">
    <path
            d="M838.284171 330.523147 837.725258 287.969701 714.845258 419.334273C703.255161 431.724638 703.903906 451.164645 716.294273 462.754742 728.684638 474.344839 748.124645 473.696094 759.714742 461.305727L882.594742 329.941156C893.854693 317.903731 893.608051 299.125248 882.035829 287.38771L759.155829 162.752281C747.244306 150.670594 727.793967 150.532649 715.712281 162.444171 703.630594 174.355693 703.492649 193.806032 715.404171 205.887719L838.284171 330.523147Z"
            p-id="18008" fill="#515151"></path>
    <path
            d="M204.933213 153.6C142.666561 153.6 92.16 204.043003 92.16 266.254734L92.16 798.793535C92.16 861.000106 142.464635 911.448269 204.598858 911.448269L778.441148 911.448269C840.512004 911.448269 890.880006 860.966865 890.880006 798.91141L890.880006 563.023553C890.880006 546.057366 877.126193 532.303553 860.160006 532.303553 843.193819 532.303553 829.440006 546.057366 829.440006 563.023553L829.440006 798.91141C829.440006 827.065383 806.548658 850.008269 778.441148 850.008269L204.598858 850.008269C176.436258 850.008269 153.6 827.106855 153.6 798.793535L153.6 266.254734C153.6 237.992709 176.581629 215.04 204.933213 215.04L389.12 215.04C406.086187 215.04 419.84 201.286187 419.84 184.32 419.84 167.353813 406.086187 153.6 389.12 153.6L204.933213 153.6Z"
            p-id="18009" fill="#515151"></path>
    <path
            d="M460.8 471.04C460.8 397.496685 520.297624 337.92 593.730632 337.92L839.68 337.92C856.646187 337.92 870.4 324.166187 870.4 307.2 870.4 290.233813 856.646187 276.48 839.68 276.48L593.730632 276.48C486.346971 276.48 399.36 363.58256 399.36 471.04L399.36 634.88C399.36 651.846187 413.113813 665.6 430.08 665.6 447.046187 665.6 460.8 651.846187 460.8 634.88L460.8 471.04Z"
            p-id="18010" fill="#515151"></path>
</svg>
