<?xml version="1.0" standalone="no"?><!DOCTYPE svg PUBLIC "-//W3C//DTD SVG 1.1//EN" "http://www.w3.org/Graphics/SVG/1.1/DTD/svg11.dtd"><svg t="1598189732492" class="icon" viewBox="0 0 1024 1024" version="1.1" xmlns="http://www.w3.org/2000/svg" p-id="8021" width="16" height="16"><defs><style type="text/css"></style></defs><path d="M517.376 77.376c-121.92 0-221.12 99.264-221.12 222.976 0 36.992 30.08 67.008 67.008 67.008 36.928 0 67.008-30.016 66.944-68.864 0-48 39.104-87.104 87.168-87.104 48.128 0 87.232 39.104 87.232 86.976 0 19.776-4.544 61.248-44.48 83.968-9.152 5.248-24.96 11.648-43.072 19.52-86.656 37.504-231.68 100.224-231.68 177.984l0 277.248 0 34.112 0 45.888c0 14.144 11.52 25.472 25.6 25.472l401.92 0c14.208 0 25.6-11.392 25.6-25.472l0-45.888 0-34.112L738.496 298.496C738.56 176.64 639.36 77.376 517.376 77.376z" p-id="8022" fill="#1296db"></path></svg>
