<svg t="1605333982641" class="icon" viewBox="0 0 1024 1024" version="1.1" xmlns="http://www.w3.org/2000/svg" p-id="17137" width="22" height="22"><path d="M512 62.00000001a450 450 0 1 0 449.99999999 449.99999999 450.51428584 450.51428584 0 0 0-449.99999999-449.99999999z m0 843.42857167A393.75 393.75 0 1 1 905.75 512 393.81428584 393.81428584 0 0 1 512 905.42857168zM588.11428583 323.64285752a27.06428584 27.06428584 0 0 0-39.72857167 0 27.45 27.45 0 0 0 0 39.21428496l120.72857168 120.85714336L287 483.71428584a28.28571416 28.28571416 0 0 0 0 56.57142832L669.11428584 540.28571416l-120.72857168 120.85714336a27.45 27.45 0 0 0 0 39.21428496 27.77142833 27.77142833 0 0 0 39.72857167 0L756.86428584 531.92857167a28.22142832 28.22142832 0 0 0 0-39.85714334z" fill="#666" p-id="17138"></path></svg>
