<svg t="1619246124187" class="icon" viewBox="0 0 1024 1024" version="1.1" xmlns="http://www.w3.org/2000/svg" p-id="4658" width="16" height="16"><path d="M307.2 665.6l-204.8-153.6 204.8-153.6v307.2zM870.4 307.2H460.8a51.2 51.2 0 0 1-51.2-51.2V153.6a51.2 51.2 0 0 1 51.2-51.2h409.6a51.2 51.2 0 0 1 51.2 51.2v102.4a51.2 51.2 0 0 1-51.2 51.2z m0 307.2H460.8a51.2 51.2 0 0 1-51.2-51.2v-102.4a51.2 51.2 0 0 1 51.2-51.2h409.6a51.2 51.2 0 0 1 51.2 51.2v102.4a51.2 51.2 0 0 1-51.2 51.2z m0 307.2H460.8a51.2 51.2 0 0 1-51.2-51.2v-102.4a51.2 51.2 0 0 1 51.2-51.2h409.6a51.2 51.2 0 0 1 51.2 51.2v102.4a51.2 51.2 0 0 1-51.2 51.2z" p-id="4659" fill="#ffffff"></path></svg>