<svg t="1608973375793" class="icon" viewBox="0 0 1024 1024" version="1.1" xmlns="http://www.w3.org/2000/svg" p-id="10207" width="16" height="16"><path d="M512 512m-500.363636 0a500.363636 500.363636 0 1 0 1000.727272 0 500.363636 500.363636 0 1 0-1000.727272 0Z" fill="#FFFFFF" p-id="10208"></path><path d="M868.072727 155.927273c-95.418182-95.418182-221.090909-146.618182-356.072727-146.618182s-260.654545 51.2-356.072727 146.618182c-95.418182 95.418182-146.618182 221.090909-146.618182 356.072727s51.2 260.654545 146.618182 356.072727c95.418182 95.418182 221.090909 146.618182 356.072727 146.618182 134.981818 0 260.654545-51.2 356.072727-146.618182 195.490909-195.490909 195.490909-514.327273 0-712.145454z m-288.581818 493.381818l-123.345454 123.345454c-27.927273 27.927273-62.836364 41.890909-100.072728 41.89091-37.236364 0-74.472727-13.963636-100.072727-41.89091l-6.981818-6.981818c-55.854545-55.854545-55.854545-146.618182 0-202.472727l76.8-74.472727 30.254545 30.254545-76.8 74.472727c-39.563636 39.563636-39.563636 102.4 0 141.963637l6.981818 6.981818c18.618182 18.618182 44.218182 30.254545 72.145455 30.254545 27.927273 0 51.2-9.309091 72.145455-30.254545l123.345454-123.345455c18.618182-18.618182 30.254545-44.218182 30.254546-72.145454s-9.309091-53.527273-30.254546-72.145455l-6.981818-6.981818 30.254545-30.254545 6.981819 6.981818c27.927273 27.927273 41.890909 62.836364 41.890909 100.072727-4.654545 41.890909-18.618182 76.8-46.545455 104.727273z m197.818182-188.509091l-62.836364 62.836364-30.254545-30.254546 62.836363-62.836363c39.563636-39.563636 39.563636-102.4 0-141.963637l-6.981818-6.981818c-39.563636-39.563636-102.4-39.563636-141.963636 0l-123.345455 123.345455c-39.563636 39.563636-39.563636 102.4 0 141.963636l6.981819 6.981818-30.254546 30.254546-6.981818-6.981819c-55.854545-55.854545-55.854545-146.618182 0-202.472727l123.345454-123.345454c55.854545-55.854545 146.618182-55.854545 202.472728 0l6.981818 6.981818c58.181818 58.181818 55.854545 148.945455 0 202.472727z" fill="#176DC1" p-id="10209"></path></svg>
