<svg  t="1592058124478" viewBox="0 0 1024 1024" version="1.1"
        xmlns="http://www.w3.org/2000/svg" width="26" height="26">
<path
d="M409.6 614.4h204.8v204.8H409.6v-204.8z m204.8-614.4h204.8v204.8h-204.8V0zM409.6 204.8h204.8v204.8H409.6V204.8zM0 204.8h204.8v204.8H0V204.8z m819.2 0h204.8v204.8h-204.8V204.8z m0 409.6h204.8v204.8h-204.8v-204.8zM0 614.4h204.8v204.8H0v-204.8z m614.4-204.8h204.8v204.8h-204.8V409.6zM204.8 409.6h204.8v204.8H204.8V409.6z m0 409.6h204.8v204.8H204.8v-204.8z m409.6 0h204.8v204.8h-204.8v-204.8zM204.8 0h204.8v204.8H204.8V0z"
p-id="3091"></path>
        </svg>
