<svg t="1613010659109" class="icon" viewBox="0 0 1024 1024" version="1.1" xmlns="http://www.w3.org/2000/svg" p-id="5189" width="16" height="16"><path d="M339.6 84h330.9C811 84 925 198 925 338.5v585.4H339.6c-140.6 0-254.5-114-254.5-254.5V338.5C85.1 198 199.1 84 339.6 84z" fill="#1296db" p-id="5190" data-spm-anchor-id="a313x.7781069.0.i2" class="selected"></path><path d="M670.3 465.7c3.5 0.9 7.2 1.3 11 1.3 24.6 0 44.7-20 44.7-44.7 0-24.6-20-44.7-44.7-44.7-5.1 0-10 0.9-14.6 2.5l-4.3-0.5 7.5-69.8c1.6-4.7 2.6-9.7 2.6-14.9 0-1.8-0.1-3.7-0.3-5.5l0.3-3.4-0.9-0.1c-4.1-20.4-22.1-35.7-43.8-35.7-21.6 0-44.7 20-44.7 44.7 0 2.4 0.2 4.7 0.5 6.8l-12.4 77.8h-74.8l10.6-61.7c2.8-6.2 4.4-12.9 4.4-20.1 0-1.5-0.1-3-0.2-4.6l0.2-1.3h-0.3c-2.9-23.5-23-41.9-47.4-41.9-22 0-40.5 14.9-46.1 35.2l-1.1-0.1-16.5 94.4h-44v1.2c-22.9 0.7-41.2 19.4-41.2 42.5s18.3 41.9 41.2 42.5v0.7h30.3l-11.5 72.5h-41.2v1.4c-20.7 2.8-36.7 20.5-36.7 42s15.9 39.3 36.7 42v1.4h26.9l-7.9 84.2c-1.3 4.2-2.1 8.9-2.1 13.7 0 1.8 0.1 3.6 0.3 5.4l-0.3 3.6h0.9c4.1 20.4 22.1 35.7 43.8 35.7 21.6 0 39.6-15.4 43.8-35.7h0.9l17-106.8h74.6l-12.7 88.9 0.5 0.1c-0.3 2.8-0.5 5.8-0.5 8.8 0 24.6 20 44.7 44.7 44.7 21.7 0 39.7-15.4 43.8-35.9l0.9 0.2L628 625.7h44v-1.5c19.2-4.2 33.6-21.4 33.6-41.9s-14.4-37.6-33.6-41.9v-1.6h-29.1l11-72.7 16.4-0.4z m-198.9 73.5l11.5-72.7h74.8l-11.5 72.7h-74.8z" fill="#FFFFFF" p-id="5191"></path></svg>
