<svg xmlns="http://www.w3.org/2000/svg" width="60" height="60" style="width: 100%; height: 100%;"><defs><clipPath id="btn_like_nor_svg__a"><path d="M0 0h60v60H0z"></path></clipPath></defs><g clip-path="url(#btn_like_nor_svg__a)"><g display="block"><g fill="none"><path stroke-miterlimit="10" stroke="#3370FF" stroke-width="2" d="M24.315 38.004H35.63c.438 0 .831-.272.982-.684l3.142-8.487a2.137 2.137 0 00-2.005-2.88h-6.064a.094.094 0 01-.083-.14c.282-.508 1.277-2.263 1.537-3.105.422-1.366-.04-2.951-2.341-3.754a.094.094 0 00-.064 0 .068.068 0 00-.031.025l-2.093 2.97-2.738 3.886a.28.28 0 01-.231.118h-1.327a.082.082 0 00-.082.082v11.886c0 .046.037.083.083.083z"></path><path d="M24.315 38.004H35.63c.438 0 .831-.272.982-.684l3.142-8.487a2.137 2.137 0 00-2.005-2.88h-6.064a.094.094 0 01-.083-.14c.282-.508 1.277-2.263 1.537-3.105.422-1.366-.04-2.951-2.341-3.754a.094.094 0 00-.064 0 .068.068 0 00-.031.025l-2.093 2.97-2.738 3.886a.28.28 0 01-.231.118h-1.327a.082.082 0 00-.082.082v11.886c0 .046.037.083.083.083z"></path></g><path fill="#3370FF" d="M21.071 39.051h-1.004a.502.502 0 01-.502-.502v-13.05c0-.277.225-.502.502-.502h1.004c.277 0 .502.225.502.502v13.05a.502.502 0 01-.502.502z"></path></g><path fill="#336FFF" d="M30 1c15.99 0 29 13.009 29 29 0 15.99-13.01 29-29 29C14.009 59 1 45.99 1 30 1 14.009 14.009 1 30 1zm0-1C13.432 0 0 13.432 0 30c0 16.568 13.432 30 30 30 16.568 0 30-13.432 30-30C60 13.432 46.568 0 30 0z" display="block"></path></g></svg>